<svg width="24" height="24" viewBox="0 0 24 24" fill="none" xmlns="http://www.w3.org/2000/svg">
<path fill-rule="evenodd" clip-rule="evenodd" d="M14.3883 16.4912C14.1333 16.6663 13.8664 16.8292 13.5897 16.9781C12.4731 17.5787 11.1967 17.9488 9.89815 17.9488C5.53594 17.9488 2 14.3777 2 9.97217C2 5.56658 5.53594 1.99548 9.89815 1.99548C14.2604 1.99548 17.7963 5.56658 17.7963 9.97217C17.7963 11.272 17.486 12.5028 16.9346 13.5911C16.7935 13.8696 16.6367 14.1388 16.4652 14.3974C16.4418 14.4327 16.4181 14.4678 16.3941 14.5027C16.237 14.7317 16.0682 14.9522 15.8886 15.1631L16.2244 15.499L16.2978 15.5115L17.0299 15.6362L17.06 15.6413L17.2983 15.8747L17.4844 16.0571L17.6274 16.1971L22.1083 20.5868C22.3071 20.7814 22.3087 21.1008 22.112 21.2975L21.4163 21.9931C21.2228 22.1867 20.9096 22.1886 20.7137 21.9975L16.2202 17.6156L16.1101 17.5083L15.9146 17.3176L15.6606 17.0699L15.6458 17.0555L15.4948 16.3085L15.4814 16.242L15.1456 15.9062C14.9249 16.0977 14.6911 16.2801 14.4459 16.4513L14.3883 16.4912ZM14.3088 13.9335L14.3656 13.8668C15.2592 12.8169 15.7963 11.4565 15.7963 9.97217C15.7963 6.65245 13.1372 3.99548 9.89815 3.99548C6.65912 3.99548 4 6.65245 4 9.97217C4 11.5008 4.56381 12.8889 5.48843 13.9417C5.94695 12.5638 8.10182 12 9.9 12C11.6946 12 13.8445 12.5615 14.3088 13.9335ZM12.4 8.5C12.4 9.87857 11.2786 11 9.9 11C8.52143 11 7.4 9.87857 7.4 8.5C7.4 7.12143 8.52143 6 9.9 6C11.2786 6 12.4 7.12143 12.4 8.5Z" fill="#9397A6"/>
</svg>
