<svg width="24" height="24" viewBox="0 0 24 24" fill="none" xmlns="http://www.w3.org/2000/svg">
<path fill-rule="evenodd" clip-rule="evenodd" d="M7.17 7H8.05089L8.64553 6.35011L9.88089 5H14.1191L15.3545 6.35011L15.9491 7H16.83H19C19.5523 7 20 7.44772 20 8V18C20 18.5523 19.5523 19 19 19H5C4.44772 19 4 18.5523 4 18V8C4 7.44772 4.44772 7 5 7H7.17ZM15.2973 3.32494L16.83 5H19C20.6569 5 22 6.34315 22 8V18C22 19.6569 20.6569 21 19 21H5C3.34315 21 2 19.6569 2 18V8C2 6.34315 3.34315 5 5 5H7.17L8.70268 3.32494C8.89211 3.11791 9.15982 3 9.44044 3H14.5596C14.8402 3 15.1079 3.11791 15.2973 3.32494ZM14.7 13C14.7 14.4912 13.4912 15.7 12 15.7C10.5088 15.7 9.3 14.4912 9.3 13C9.3 11.5088 10.5088 10.3 12 10.3C13.4912 10.3 14.7 11.5088 14.7 13ZM16.5 13C16.5 15.4853 14.4853 17.5 12 17.5C9.51472 17.5 7.5 15.4853 7.5 13C7.5 10.5147 9.51472 8.5 12 8.5C14.4853 8.5 16.5 10.5147 16.5 13Z" fill="#9397A6"/>
</svg>
