<svg width="24" height="25" viewBox="0 0 24 25" fill="none" xmlns="http://www.w3.org/2000/svg">
<g id="Group">
<path id="Vector" d="M12.0004 2.44678C13.0612 2.44678 14.0787 2.8682 14.8288 3.61835C15.5789 4.3685 16.0004 5.38591 16.0004 6.44678H18.0354C18.5536 6.44671 19.0515 6.64776 19.4244 7.00759C19.7973 7.36741 20.016 7.85792 20.0344 8.37578L20.4624 20.3758C20.4719 20.6442 20.4273 20.9117 20.3312 21.1625C20.2351 21.4133 20.0894 21.6421 19.903 21.8354C19.7165 22.0287 19.493 22.1824 19.2459 22.2875C18.9987 22.3925 18.7329 22.4467 18.4644 22.4468H5.53637C5.26781 22.4467 5.00202 22.3925 4.75486 22.2875C4.5077 22.1824 4.28422 22.0287 4.09776 21.8354C3.91129 21.6421 3.76567 21.4133 3.66956 21.1625C3.57345 20.9117 3.52884 20.6442 3.53837 20.3758L3.96637 8.37578C3.98477 7.85792 4.20344 7.36741 4.57632 7.00759C4.9492 6.64776 5.44719 6.44671 5.96537 6.44678H8.00037C8.00037 5.38591 8.4218 4.3685 9.17194 3.61835C9.92209 2.8682 10.9395 2.44678 12.0004 2.44678ZM8.00037 8.44678H5.96537L5.53637 20.4468H18.4644L18.0354 8.44678H16.0004V9.44678C16.0001 9.70166 15.9025 9.94681 15.7275 10.1321C15.5526 10.3175 15.3134 10.429 15.059 10.4439C14.8045 10.4589 14.554 10.3761 14.3585 10.2125C14.1631 10.0489 14.0375 9.81687 14.0074 9.56378L14.0004 9.44678V8.44678H10.0004V9.44678C10.0001 9.70166 9.90249 9.94681 9.72752 10.1321C9.55255 10.3175 9.31342 10.429 9.05897 10.4439C8.80453 10.4589 8.55399 10.3761 8.35854 10.2125C8.16308 10.0489 8.03747 9.81687 8.00737 9.56378L8.00037 9.44678V8.44678ZM12.0004 4.44678C11.4958 4.44662 11.0098 4.63718 10.6398 4.98027C10.2698 5.32336 10.0432 5.79362 10.0054 6.29678L10.0004 6.44678H14.0004C14.0004 5.91634 13.7897 5.40764 13.4146 5.03256C13.0395 4.65749 12.5308 4.44678 12.0004 4.44678Z" fill="#9397A6"/>
</g>
</svg>
