<svg width="22" height="22" viewBox="0 0 25 25" fill="none" xmlns="http://www.w3.org/2000/svg">
<path id="&#226;&#134;&#179; Icon Color" d="M12.2067 0.044632C12.5381 -0.0148773 12.8623 -0.0148773 13.1937 0.044632C13.5238 0.103922 13.7917 0.198694 14.327 0.442022L22.908 4.34247C23.4348 4.58193 23.6998 4.74601 23.9626 5.00218C24.2215 5.25454 24.4134 5.55255 24.536 5.89267C24.6605 6.23792 24.7002 6.54706 24.7002 7.12574V17.4763C24.7002 18.055 24.6605 18.3641 24.536 18.7094C24.4134 19.0495 24.2215 19.3475 23.9626 19.5998C23.6998 19.856 23.4348 20.0201 22.908 20.2596L14.1382 24.2445C13.7238 24.4265 13.4825 24.5055 13.1937 24.5574C12.8623 24.6169 12.5381 24.6169 12.2067 24.5574C11.8766 24.4981 11.6087 24.4033 11.0734 24.16L2.49238 20.2596C1.96557 20.0201 1.70058 19.856 1.43777 19.5998C1.17888 19.3475 0.986985 19.0495 0.864376 18.7094C0.739915 18.3641 0.700195 18.055 0.700195 17.4763L0.702145 6.92077C0.711449 6.46921 0.755473 6.19477 0.864376 5.89267C0.986985 5.55255 1.17888 5.25454 1.43777 5.00218C1.70058 4.74601 1.96557 4.58193 2.49238 4.34247L11.2622 0.357517C11.6766 0.175556 11.9179 0.096511 12.2067 0.044632ZM2.7002 7.354L2.70062 17.5853C2.70236 17.7859 2.70953 17.8857 2.72458 17.9568L2.74586 18.0311C2.76579 18.0864 2.7917 18.1266 2.83379 18.1677C2.90459 18.2367 2.98554 18.2868 3.31999 18.4388L11.7002 22.248L11.7001 11.4325C11.6861 11.4276 11.6722 11.4225 11.6583 11.4174L11.4588 11.3352L2.7002 7.354ZM22.7002 7.353L13.9416 11.3352C13.8626 11.3711 13.7824 11.4034 13.7013 11.4321L13.7002 22.248L22.0804 18.4388C22.2954 18.3411 22.4056 18.2855 22.4758 18.2399L22.5078 18.2178L22.5666 18.1677C22.6087 18.1266 22.6346 18.0864 22.6545 18.0311C22.6881 17.9381 22.7002 17.8437 22.7002 17.4763V7.353ZM7.2002 4.399L4.1162 5.801L12.2864 9.51446C12.5118 9.6169 12.7656 9.63154 12.9992 9.55836L13.114 9.51446L15.7832 8.301L7.2002 4.399ZM12.8401 2.01314C12.7426 1.99562 12.6578 1.99562 12.5603 2.01314C12.4245 2.03752 12.2981 2.08223 11.901 2.26275L9.6162 3.3L18.2002 7.202L21.2832 5.801L13.4994 2.26275C13.2346 2.1424 13.0902 2.08241 12.9831 2.04857L12.9323 2.03367L12.8401 2.01314Z" fill="#9397A6"/>
</svg>
