<svg width="24" height="24" viewBox="0 0 24 24" fill="none" xmlns="http://www.w3.org/2000/svg">
<path d="M17.2986 11.6372L8.27133 5.58658C8.19893 5.53758 8.11322 5.50811 8.02374 5.50145C7.93426 5.49479 7.84453 5.51119 7.76456 5.54883C7.68458 5.58647 7.6175 5.64387 7.57079 5.71463C7.52408 5.7854 7.49957 5.86675 7.50001 5.94961V18.0508C7.50001 18.4195 7.95122 18.6278 8.27133 18.4139L17.2986 12.3633C17.361 12.3218 17.4117 12.2673 17.4467 12.2042C17.4817 12.141 17.5 12.0711 17.5 12.0002C17.5 11.9293 17.4817 11.8594 17.4467 11.7963C17.4117 11.7332 17.361 11.6786 17.2986 11.6372Z" fill="#BFCBE0"/>
</svg>
