<svg width="25" height="25" viewBox="0 0 25 25" fill="none" xmlns="http://www.w3.org/2000/svg">
<path d="M10 12.4463C10 11.065 11.1188 9.94629 12.5 9.94629C13.8813 9.94629 15 11.065 15 12.4463C15 13.8275 13.8813 14.9463 12.5 14.9463C11.1188 14.9463 10 13.8275 10 12.4463Z" fill="#9397A6"/>
<path d="M19.9289 13.4263C19.9689 13.1063 19.9989 12.7863 19.9989 12.4463C19.9989 12.1063 19.9689 11.7863 19.9289 11.4663L22.0389 9.81629C22.2289 9.66629 22.2789 9.39629 22.1589 9.17629L20.1589 5.71629C20.0689 5.55629 19.8989 5.46629 19.7189 5.46629C19.6589 5.46629 19.5989 5.47629 19.5489 5.49629L17.0589 6.49629C16.5389 6.09629 15.9789 5.76629 15.3689 5.51629L14.9889 2.86629C14.9589 2.62629 14.7489 2.44629 14.4989 2.44629H10.4989C10.2489 2.44629 10.0389 2.62629 10.0089 2.86629L9.62886 5.51629C9.01886 5.76629 8.45886 6.10629 7.93886 6.49629L5.44886 5.49629C5.38886 5.47629 5.32886 5.46629 5.26886 5.46629C5.09886 5.46629 4.92886 5.55629 4.83886 5.71629L2.83886 9.17629C2.70886 9.39629 2.76886 9.66629 2.95886 9.81629L5.06886 11.4663C5.02886 11.7863 4.99886 12.1163 4.99886 12.4463C4.99886 12.7763 5.02886 13.1063 5.06886 13.4263L2.95886 15.0763C2.76886 15.2263 2.71886 15.4963 2.83886 15.7163L4.83886 19.1763C4.92886 19.3363 5.09886 19.4263 5.27886 19.4263C5.33886 19.4263 5.39886 19.4163 5.44886 19.3963L7.93886 18.3963C8.45886 18.7963 9.01886 19.1263 9.62886 19.3763L10.0089 22.0263C10.0389 22.2663 10.2489 22.4463 10.4989 22.4463H14.4989C14.7489 22.4463 14.9589 22.2663 14.9889 22.0263L15.3689 19.3763C15.9789 19.1263 16.5389 18.7863 17.0589 18.3963L19.5489 19.3963C19.6089 19.4163 19.6689 19.4263 19.7289 19.4263C19.8989 19.4263 20.0689 19.3363 20.1589 19.1763L22.1589 15.7163C22.2789 15.4963 22.2289 15.2263 22.0389 15.0763L19.9289 13.4263ZM17.9489 11.7163C17.9889 12.0263 17.9989 12.2363 17.9989 12.4463C17.9989 12.6563 17.9789 12.8763 17.9489 13.1763L17.8089 14.3063L18.6989 15.0063L19.7789 15.8463L19.0789 17.0563L17.8089 16.5463L16.7689 16.1263L15.8689 16.8063C15.4389 17.1263 15.0289 17.3663 14.6189 17.5363L13.5589 17.9663L13.3989 19.0963L13.1989 20.4463H11.7989L11.6089 19.0963L11.4489 17.9663L10.3889 17.5363C9.95886 17.3563 9.55886 17.1263 9.15886 16.8263L8.24886 16.1263L7.18886 16.5563L5.91886 17.0663L5.21886 15.8563L6.29886 15.0163L7.18886 14.3163L7.04886 13.1863C7.01886 12.8763 6.99886 12.6463 6.99886 12.4463C6.99886 12.2463 7.01886 12.0163 7.04886 11.7163L7.18886 10.5863L6.29886 9.88629L5.21886 9.04629L5.91886 7.83629L7.18886 8.34629L8.22886 8.76629L9.12886 8.08629C9.55886 7.76629 9.96886 7.52629 10.3789 7.35629L11.4389 6.92629L11.5989 5.79629L11.7989 4.44629H13.1889L13.3789 5.79629L13.5389 6.92629L14.5989 7.35629C15.0289 7.53629 15.4289 7.76629 15.8289 8.06629L16.7389 8.76629L17.7989 8.33629L19.0689 7.82629L19.7689 9.03629L18.6989 9.88629L17.8089 10.5863L17.9489 11.7163Z" fill="#9397A6"/>
</svg>
