<svg width="16" height="16" viewBox="0 0 16 16" fill="none" xmlns="http://www.w3.org/2000/svg">
<g id="IconPause">
<path id="Vector" d="M5.30342 1H3.32906C3.14808 1 3 1.1575 3 1.35V14.65C3 14.8425 3.14808 15 3.32906 15H5.30342C5.4844 15 5.63248 14.8425 5.63248 14.65V1.35C5.63248 1.1575 5.4844 1 5.30342 1ZM12.6709 1H10.6966C10.5156 1 10.3675 1.1575 10.3675 1.35V14.65C10.3675 14.8425 10.5156 15 10.6966 15H12.6709C12.8519 15 13 14.8425 13 14.65V1.35C13 1.1575 12.8519 1 12.6709 1Z" fill="#BFCBE0"/>
</g>
</svg>
