<svg width="24" height="25" viewBox="0 0 24 25" fill="none" xmlns="http://www.w3.org/2000/svg">
<path d="M20.1818 16.083V5.17393H3.81818V16.083H20.1818ZM20.1818 3.35574C20.664 3.35574 21.1265 3.5473 21.4675 3.88828C21.8084 4.22925 22 4.69171 22 5.17393V16.083C22 16.5652 21.8084 17.0277 21.4675 17.3687C21.1265 17.7096 20.664 17.9012 20.1818 17.9012H13.8182V19.7194H15.6364V21.5376H8.36364V19.7194H10.1818V17.9012H3.81818C3.33597 17.9012 2.87351 17.7096 2.53253 17.3687C2.19156 17.0277 2 16.5652 2 16.083V5.17393C2 4.16483 2.80909 3.35574 3.81818 3.35574H20.1818ZM5.63636 6.99211H13.8182V11.5376H5.63636V6.99211ZM14.7273 6.99211H18.3636V8.81029H14.7273V6.99211ZM18.3636 9.71938V14.2648H14.7273V9.71938H18.3636ZM5.63636 12.4467H9.27273V14.2648H5.63636V12.4467ZM10.1818 12.4467H13.8182V14.2648H10.1818V12.4467Z" fill="#9397A6"/>
</svg>
