<svg width="24" height="24" viewBox="0 0 24 24" fill="none" xmlns="http://www.w3.org/2000/svg">
<path fill-rule="evenodd" clip-rule="evenodd" d="M19.8488 7.61359C17.6313 3.15024 14.5361 1.72454 10.195 2.04257C4.89912 2.43055 1 6.79582 1 12.06C1 17.532 5.29454 22 10.6307 22C13.0638 22 15.2861 21.0676 16.9787 19.5352L17.7707 18.8183L11.5116 12.4826L19.8488 7.61359ZM17.0687 6.8933L11.2291 10.3037V4.10212C12.9409 4.20524 14.1758 4.57673 15.1093 5.10641C15.9129 5.56243 16.5391 6.1618 17.0687 6.8933ZM9.22786 13.0399V4.22384C5.74467 4.98911 3.00124 8.24862 3.00124 12.06C3.00124 16.4453 6.43434 19.9683 10.6307 19.9683C12.1697 19.9683 13.6023 19.4967 14.8023 18.6826L9.22786 13.0399ZM20.9576 18.121C22.6207 16.624 24.2838 12.0225 22.0663 8.69617L14.8594 12.5769L20.9576 18.121Z" fill="#9397A6"/>
</svg>
