<svg width="18" height="18" viewBox="0 0 18 18" fill="none" xmlns="http://www.w3.org/2000/svg">
<path fill-rule="evenodd" clip-rule="evenodd" d="M10.5 2.25C10.5 1.83579 10.8358 1.5 11.25 1.5H14.25C14.8467 1.5 15.419 1.73705 15.841 2.15901C16.2629 2.58097 16.5 3.15326 16.5 3.75V14.25C16.5 14.8467 16.2629 15.419 15.841 15.841C15.419 16.2629 14.8467 16.5 14.25 16.5H11.25C10.8358 16.5 10.5 16.1642 10.5 15.75C10.5 15.3358 10.8358 15 11.25 15H14.25C14.4489 15 14.6397 14.921 14.7803 14.7803C14.921 14.6397 15 14.4489 15 14.25V3.75C15 3.55109 14.921 3.36032 14.7803 3.21967C14.6397 3.07902 14.4489 3 14.25 3H11.25C10.8358 3 10.5 2.66421 10.5 2.25ZM6.96967 4.71967C7.26256 4.42678 7.73744 4.42678 8.03033 4.71967L11.7803 8.46967C12.0732 8.76256 12.0732 9.23744 11.7803 9.53033L8.03033 13.2803C7.73744 13.5732 7.26256 13.5732 6.96967 13.2803C6.67678 12.9874 6.67678 12.5126 6.96967 12.2197L9.43934 9.75H2.25C1.83579 9.75 1.5 9.41421 1.5 9C1.5 8.58579 1.83579 8.25 2.25 8.25H9.43934L6.96967 5.78033C6.67678 5.48744 6.67678 5.01256 6.96967 4.71967Z" fill="#121922"/>
</svg>
