<svg width="24" height="24" viewBox="0 0 24 24" fill="none" xmlns="http://www.w3.org/2000/svg">
<path fill-rule="evenodd" clip-rule="evenodd" d="M19.391 3.09751C18.6099 2.31646 17.3436 2.31646 16.5626 3.0975L15.5067 4.1534L20.5307 9.17592L21.5858 8.12077C22.3669 7.33973 22.3669 6.0734 21.5858 5.29235L19.391 3.09751ZM7.41824 12.2418L14.3753 5.28477L19.3993 10.3073L12.4426 17.264C11.8456 17.861 11.0245 18.1788 10.1811 18.1394L7.6142 18.0193C7.09854 17.9952 6.68598 17.5825 6.66201 17.0668L6.54279 14.5025C6.50359 13.6593 6.8214 12.8387 7.41824 12.2418ZM2.5 20C2.22386 20 2 20.2239 2 20.5V21.5C2 21.7762 2.22386 22 2.5 22H17.5C17.7761 22 18 21.7762 18 21.5V20.5C18 20.2239 17.7761 20 17.5 20H2.5Z" fill="#71869D"/>
</svg>
