<svg width="20" height="21" viewBox="0 0 20 21" fill="none" xmlns="http://www.w3.org/2000/svg">
<path fill-rule="evenodd" clip-rule="evenodd" d="M5.52883 5.4467C6.93535 4.04018 8.84301 3.25 10.8321 3.25C12.8213 3.25 14.7289 4.04018 16.1354 5.4467C17.542 6.85322 18.3321 8.76088 18.3321 10.75C18.3321 12.7391 17.542 14.6468 16.1354 16.0533C14.7289 17.4598 12.8213 18.25 10.8321 18.25C8.92863 18.25 7.21296 17.5543 5.89488 16.3918C5.68822 16.2095 5.68976 15.8924 5.8846 15.6975L6.36051 15.2216C6.55632 15.0258 6.8727 15.0283 7.0839 15.2074C8.09456 16.0644 9.40423 16.5833 10.8321 16.5833C12.3792 16.5833 13.863 15.9688 14.9569 14.8748C16.0509 13.7808 16.6655 12.2971 16.6655 10.75C16.6655 9.2029 16.0509 7.71917 14.9569 6.62521C13.863 5.53125 12.3792 4.91667 10.8321 4.91667C9.28503 4.91667 7.8013 5.53125 6.70734 6.62521C5.61338 7.71917 4.9988 9.2029 4.9988 10.75H6.28957C6.73532 10.75 6.95827 11.2892 6.64269 11.604L4.48879 13.7526C4.29225 13.9486 3.97362 13.947 3.77904 13.749L1.6678 11.6004C1.35707 11.2842 1.58109 10.75 2.02444 10.75H3.33213C3.33213 8.76088 4.12231 6.85322 5.52883 5.4467ZM10.4996 7.41626C10.2235 7.41626 9.99961 7.64012 9.99961 7.91626V10.9843C9.99961 11.3323 10.1447 11.6646 10.3999 11.9011L12.6331 13.9709C12.8356 14.1586 13.152 14.1466 13.3397 13.9441L13.7929 13.4551C13.9806 13.2526 13.9686 12.9362 13.766 12.7485L11.8264 10.9508C11.7243 10.8562 11.6663 10.7233 11.6663 10.5841V7.91626C11.6663 7.64012 11.4424 7.41626 11.1663 7.41626H10.4996Z" fill="#002CFB"/>
</svg>
