<svg width="18" height="18" viewBox="0 0 18 18" fill="none" xmlns="http://www.w3.org/2000/svg">
<path d="M5.45476 2.93073H2.96217C2.57048 2.93073 2.25 3.25121 2.25 3.64292C2.25 10.3304 7.66961 15.7502 14.3569 15.7502C14.7486 15.7502 15.069 15.4297 15.069 15.038V12.5525C15.069 12.1608 14.7486 11.8403 14.3569 11.8403C13.4738 11.8403 12.6121 11.6978 11.8144 11.4343C11.7432 11.4058 11.6649 11.3987 11.5937 11.3987C11.4085 11.3987 11.2305 11.4699 11.088 11.6052L9.52125 13.1721C7.50581 12.1394 5.85358 10.4942 4.82805 8.47871L6.39482 6.91189C6.59423 6.71247 6.65121 6.43472 6.57287 6.18545C6.30936 5.38779 6.16693 4.53316 6.16693 3.64292C6.16693 3.25121 5.84645 2.93073 5.45476 2.93073Z" fill="#121922"/>
<path fill-rule="evenodd" clip-rule="evenodd" d="M14.3874 7.9161C14.3874 5.53887 12.4603 3.61178 10.0833 3.61178V2.24971C13.2126 2.24971 15.7495 4.78666 15.7495 7.9161H14.3874Z" fill="#121922"/>
<path fill-rule="evenodd" clip-rule="evenodd" d="M11.5387 7.91608C11.5387 7.11218 10.8871 6.46054 10.0833 6.46054V5.09846C11.6394 5.09846 12.9008 6.35998 12.9008 7.91608H11.5387Z" fill="#121922"/>
</svg>
