<svg width="22" height="22" viewBox="0 0 22 22" fill="none" xmlns="http://www.w3.org/2000/svg">
<path fill-rule="evenodd" clip-rule="evenodd" d="M3.66671 11C3.66671 6.95011 6.94578 3.66665 10.9909 3.66665C15.0487 3.66665 18.3334 6.95369 18.3334 11C18.3334 15.0463 15.0487 18.3333 10.9909 18.3333C6.94578 18.3333 3.66671 15.0498 3.66671 11ZM10.9909 1.83331C5.93087 1.83331 1.83337 5.93998 1.83337 11C1.83337 16.06 5.93087 20.1666 10.9909 20.1666C16.06 20.1666 20.1667 16.06 20.1667 11C20.1667 5.93998 16.06 1.83331 10.9909 1.83331ZM9.99171 6.41665C9.7892 6.41665 9.62504 6.58081 9.62504 6.78331V11.4583C9.62504 11.7431 9.75738 12.0117 9.98318 12.1852L14.0466 15.3076C14.2072 15.431 14.4374 15.4008 14.5608 15.2403L15.231 14.368C15.3544 14.2075 15.3242 13.9773 15.1637 13.8539L11.6016 11.1167C11.5113 11.0473 11.4584 10.9399 11.4584 10.826V6.78331C11.4584 6.58081 11.2942 6.41665 11.0917 6.41665H9.99171Z" fill="#ADBFDF"/>
</svg>
