<svg width="24" height="25" viewBox="0 0 24 25" fill="none" xmlns="http://www.w3.org/2000/svg">
<path fill-rule="evenodd" clip-rule="evenodd" d="M2.58732 18.8277L2.5873 18.8274C2.58651 18.815 2.55896 18.3807 3.86429 17.8394C5.08543 17.333 6.81334 17.063 8.46967 17.063C10.126 17.063 11.8539 17.333 13.075 17.8394C14.3804 18.3807 14.3528 18.815 14.352 18.8274L14.352 18.8277V19.4159C14.352 20.0656 13.8253 20.5924 13.1756 20.5924H3.76379C3.11404 20.5924 2.58732 20.0656 2.58732 19.4159V18.8277ZM10.8226 7.6512C10.8226 8.94666 9.76513 10.0041 8.46967 10.0041C7.1742 10.0041 6.11673 8.94666 6.11673 7.6512C6.11673 6.35573 7.1742 5.29825 8.46967 5.29825C9.76513 5.29825 10.8226 6.35573 10.8226 7.6512ZM8.46967 14.71C4.76554 14.71 0.234375 15.8865 0.234375 18.8277V19.4159C0.234375 21.3651 1.81455 22.9453 3.76379 22.9453H13.1756C15.1248 22.9453 16.705 21.3651 16.705 19.4159V18.8277C16.705 15.8865 12.1738 14.71 8.46967 14.71ZM8.46967 12.3571C11.0646 12.3571 13.1756 10.2462 13.1756 7.6512C13.1756 5.05624 11.0646 2.94531 8.46967 2.94531C5.87471 2.94531 3.76379 5.05624 3.76379 7.6512C3.76379 10.2462 5.87471 12.3571 8.46967 12.3571ZM19.0578 18.8277C19.0578 16.7688 18.0696 15.6983 16.7049 14.71C19.6461 14.71 23.7637 16.4512 23.7637 18.8277V19.4159C23.7637 21.3651 22.1836 22.9453 20.2343 22.9453H17.8814C17.8814 22.9453 19.0578 20.8865 19.0578 18.8277ZM19.6461 7.65119C19.6461 9.92178 17.799 11.7688 15.5284 11.7688C14.8931 11.7688 14.3049 11.6159 13.7637 11.3571C14.5049 10.31 14.9402 9.02767 14.9402 7.65119C14.9402 6.27472 14.5049 4.99237 13.7637 3.94531C14.3049 3.68649 14.8931 3.53355 15.5284 3.53355C17.799 3.53355 19.6461 5.38061 19.6461 7.65119Z" fill="#9397A6"/>
</svg>
