<svg width="20" height="20" viewBox="0 0 20 20" fill="none" xmlns="http://www.w3.org/2000/svg">
<path fill-rule="evenodd" clip-rule="evenodd" d="M14.8534 3.60674H5.21335C4.32601 3.60674 3.60668 4.32607 3.60668 5.21341V15.2291L3.64451 15.2064C4.28052 14.8248 5.07507 14.8248 5.71108 15.2064L7.35559 16.1931L9.00009 15.2064C9.6361 14.8248 10.4307 14.8248 11.0667 15.2064L12.7112 16.1931L14.3557 15.2064C14.9917 14.8248 15.7862 14.8248 16.4222 15.2064L16.4601 15.2291V5.21341C16.4601 4.32607 15.7407 3.60674 14.8534 3.60674ZM18.0668 16.1931V5.21341C18.0668 3.43873 16.6281 2.00006 14.8534 2.00006H5.21335C3.43867 2.00006 2 3.43873 2 5.21341V16.1931V16.2203V16.6879V17.3574C2 17.6696 2.3406 17.8625 2.60833 17.7018L3.18237 17.3574L3.58336 17.1168L3.60668 17.1028L4.47114 16.5841C4.59834 16.5078 4.75725 16.5078 4.88445 16.5841L7.14893 17.9428C7.27613 18.0191 7.43504 18.0191 7.56224 17.9428L9.82672 16.5841C9.95392 16.5078 10.1128 16.5078 10.24 16.5841L12.5045 17.9428C12.6317 18.0191 12.7906 18.0191 12.9178 17.9428L15.1823 16.5841C15.3095 16.5078 15.4684 16.5078 15.5956 16.5841L16.4601 17.1028L16.4834 17.1168L16.8844 17.3574L17.4584 17.7018C17.7261 17.8625 18.0668 17.6696 18.0668 17.3574V16.6879V16.2203V16.1931ZM5.21335 7.22176C5.21335 6.99992 5.39318 6.82009 5.61502 6.82009H7.22169C7.44353 6.82009 7.62336 6.99992 7.62336 7.22176V8.02509C7.62336 8.24693 7.44353 8.42676 7.22169 8.42676H5.61502C5.39318 8.42676 5.21335 8.24693 5.21335 8.02509V7.22176ZM9.63171 6.82009C9.40987 6.82009 9.23004 6.99992 9.23004 7.22176V8.02509C9.23004 8.24693 9.40987 8.42676 9.63171 8.42676H14.4517C14.6736 8.42676 14.8534 8.24693 14.8534 8.02509V7.22176C14.8534 6.99992 14.6736 6.82009 14.4517 6.82009H9.63171ZM5.21335 10.4351C5.21335 10.2133 5.39318 10.0334 5.61502 10.0334H7.22169C7.44353 10.0334 7.62336 10.2133 7.62336 10.4351V11.2384C7.62336 11.4603 7.44353 11.6401 7.22169 11.6401H5.61502C5.39318 11.6401 5.21335 11.4603 5.21335 11.2384V10.4351ZM9.63171 10.0334C9.40987 10.0334 9.23004 10.2133 9.23004 10.4351V11.2384C9.23004 11.4603 9.40987 11.6401 9.63171 11.6401H14.4517C14.6736 11.6401 14.8534 11.4603 14.8534 11.2384V10.4351C14.8534 10.2133 14.6736 10.0334 14.4517 10.0334H9.63171Z" fill="#ADBFDF"/>
</svg>
