<svg width="18" height="18" viewBox="0 0 18 18" fill="none" xmlns="http://www.w3.org/2000/svg">
<path d="M14.04 11.0714C14.3025 10.4339 14.445 9.75141 14.445 9.00141C14.445 8.46141 14.3625 7.94391 14.22 7.46391C13.7325 7.57641 13.2225 7.63641 12.69 7.63641C10.395 7.63641 8.3625 6.50391 7.125 4.75641C6.4575 6.37641 5.1825 7.69641 3.5775 8.41641C3.5475 8.60391 3.5475 8.80641 3.5475 9.00141C3.5475 10.4475 4.12196 11.8344 5.1445 12.8569C6.16704 13.8794 7.55391 14.4539 9 14.4539C9.7875 14.4539 10.545 14.2814 11.2275 13.9739C11.655 14.7914 11.85 15.1964 11.835 15.1964C10.605 15.6089 9.6525 15.8114 9 15.8114C7.185 15.8114 5.4525 15.0989 4.1775 13.8164C3.3975 13.0364 2.82 12.0839 2.4975 11.0489H1.5V7.63641H2.3175C2.9475 4.53141 5.7 2.19141 9 2.19141C10.8 2.19141 12.5325 2.90391 13.815 4.18641C14.7675 5.13141 15.405 6.33891 15.6675 7.63641H16.5V11.0039V11.0189V11.0489H16.455L13.785 13.5014L9.81 13.0514V11.7989H13.4325L14.04 11.0714ZM6.9525 8.82891C7.1775 8.82891 7.395 8.91891 7.5525 9.08391C7.71 9.24141 7.8 9.45891 7.8 9.68391C7.8 9.90891 7.71 10.1264 7.5525 10.2839C7.395 10.4414 7.1775 10.5314 6.9525 10.5314C6.48 10.5314 6.0975 10.1564 6.0975 9.68391C6.0975 9.21141 6.48 8.82891 6.9525 8.82891ZM11.04 8.82891C11.5125 8.82891 11.8875 9.21141 11.8875 9.68391C11.8875 10.1564 11.5125 10.5314 11.04 10.5314C10.5675 10.5314 10.185 10.1564 10.185 9.68391C10.185 9.45715 10.2751 9.23967 10.4354 9.07933C10.5958 8.91899 10.8132 8.82891 11.04 8.82891Z" fill="#121922"/>
</svg>
