<svg width="17" height="16" viewBox="0 0 17 16" fill="none" xmlns="http://www.w3.org/2000/svg">
<path fill-rule="evenodd" clip-rule="evenodd" d="M7.09961 8.8C7.21007 8.8 7.29961 8.88954 7.29961 9L7.29961 14.6C7.29961 14.8209 7.4787 15 7.69961 15H8.49961C8.72052 15 8.89961 14.8209 8.89961 14.6V9C8.89961 8.88954 8.98915 8.8 9.09961 8.8H14.6996C14.9205 8.8 15.0996 8.62091 15.0996 8.4V7.6C15.0996 7.37909 14.9205 7.2 14.6996 7.2H9.09961C8.98915 7.2 8.89961 7.11046 8.89961 7V1.4C8.89961 1.17909 8.72052 1 8.49961 1H7.69961C7.4787 1 7.29961 1.17909 7.29961 1.4L7.29961 7C7.29961 7.11046 7.21007 7.2 7.09961 7.2H1.49961C1.2787 7.2 1.09961 7.37909 1.09961 7.6V8.4C1.09961 8.62091 1.2787 8.8 1.49961 8.8H7.09961Z" fill="white"/>
</svg>
