<svg width="20" height="20" viewBox="0 0 20 20" fill="none" xmlns="http://www.w3.org/2000/svg">
<path d="M6.63743 3C6.44454 3 6.25956 3.07662 6.12317 3.21299C5.98678 3.34937 5.91016 3.53434 5.91016 3.7272V5.18161C5.91016 5.37448 5.98678 5.55945 6.12317 5.69583C6.25956 5.8322 6.44454 5.90882 6.63743 5.90882C6.83031 5.90882 7.0153 5.8322 7.15169 5.69583C7.28808 5.55945 7.3647 5.37448 7.3647 5.18161V3.7272C7.3647 3.53434 7.28808 3.34937 7.15169 3.21299C7.0153 3.07662 6.83031 3 6.63743 3Z" fill="#121922"/>
<path fill-rule="evenodd" clip-rule="evenodd" d="M11.7273 16.8176C12.7585 16.8175 13.7564 16.4522 14.5441 15.7867C15.3318 15.1212 15.8584 14.1982 16.0305 13.1816H16.0909C16.8624 13.1816 17.6024 12.8751 18.1479 12.3296C18.6935 11.7841 19 11.0442 19 10.2727C19 9.50128 18.6935 8.76141 18.1479 8.2159C17.6024 7.67039 16.8624 7.36392 16.0909 7.36392V6.63672H3V12.4544C3 13.6116 3.45974 14.7214 4.27808 15.5396C5.09642 16.3579 6.20633 16.8176 7.36364 16.8176H11.7273ZM4.45455 8.09113V12.4544C4.45455 13.2258 4.76104 13.9657 5.3066 14.5112C5.85216 15.0567 6.5921 15.3632 7.36364 15.3632H11.7273C12.4988 15.3632 13.2388 15.0567 13.7843 14.5112C14.3299 13.9657 14.6364 13.2258 14.6364 12.4544V8.09113H4.45455ZM17.5455 10.2727C17.5455 10.6585 17.3922 11.0284 17.1194 11.3012C16.8466 11.5739 16.4767 11.7272 16.0909 11.7272V8.81833C16.4767 8.81833 16.8466 8.97157 17.1194 9.24432C17.3922 9.51707 17.5455 9.88701 17.5455 10.2727Z" fill="#121922"/>
<path d="M8.81641 3.7272C8.81641 3.53434 8.89303 3.34937 9.02942 3.21299C9.16581 3.07662 9.35079 3 9.54368 3C9.73656 3 9.92155 3.07662 10.0579 3.21299C10.1943 3.34937 10.271 3.53434 10.271 3.7272V5.18161C10.271 5.37448 10.1943 5.55945 10.0579 5.69583C9.92155 5.8322 9.73656 5.90882 9.54368 5.90882C9.35079 5.90882 9.16581 5.8322 9.02942 5.69583C8.89303 5.55945 8.81641 5.37448 8.81641 5.18161V3.7272ZM12.4528 3C12.2599 3 12.0749 3.07662 11.9385 3.21299C11.8021 3.34937 11.7255 3.53434 11.7255 3.7272V5.18161C11.7255 5.37448 11.8021 5.55945 11.9385 5.69583C12.0749 5.8322 12.2599 5.90882 12.4528 5.90882C12.6457 5.90882 12.8306 5.8322 12.967 5.69583C13.1034 5.55945 13.18 5.37448 13.18 5.18161V3.7272C13.18 3.53434 13.1034 3.34937 12.967 3.21299C12.8306 3.07662 12.6457 3 12.4528 3Z" fill="#121922"/>
</svg>
