<svg width="32" height="32" viewBox="0 0 32 32" fill="none" xmlns="http://www.w3.org/2000/svg">
<rect width="32" height="32" rx="16" fill="#FFDFDF"/>
<path fill-rule="evenodd" clip-rule="evenodd" d="M15.9991 7.66406C15.2218 7.66406 14.469 7.95841 13.908 8.49378C13.3458 9.03042 13.0223 9.76676 13.0223 10.5432V15.9987C13.0223 16.7752 13.3458 17.5115 13.908 18.0482C14.469 18.5835 15.2218 18.8779 15.9991 18.8779C16.7764 18.8779 17.5292 18.5835 18.0901 18.0482C18.6523 17.5115 18.9759 16.7752 18.9759 15.9987V10.5432C18.9759 9.76676 18.6523 9.03042 18.0901 8.49378C17.5292 7.95841 16.7764 7.66406 15.9991 7.66406ZM15.0588 9.69948C15.3018 9.46753 15.6394 9.3308 15.9991 9.3308C16.3587 9.3308 16.6963 9.46753 16.9393 9.69948C17.181 9.93018 17.3091 10.2345 17.3091 10.5432V15.9987C17.3091 16.3074 17.181 16.6118 16.9393 16.8425C16.6963 17.0744 16.3587 17.2112 15.9991 17.2112C15.6394 17.2112 15.3018 17.0744 15.0588 16.8425C14.8171 16.6118 14.689 16.3074 14.689 15.9987V10.5432C14.689 10.2345 14.8171 9.93018 15.0588 9.69948ZM11.8308 14.6337C11.8308 14.1735 11.4577 13.8004 10.9974 13.8004C10.5372 13.8004 10.1641 14.1735 10.1641 14.6337V15.9976C10.1641 17.4975 10.7887 18.9277 11.8869 19.9759C12.7832 20.8314 13.9352 21.3763 15.1643 21.5469V22.6679H13.1394C12.6792 22.6679 12.3061 23.041 12.3061 23.5013C12.3061 23.9616 12.6792 24.3347 13.1394 24.3347H18.8553C19.3156 24.3347 19.6887 23.9616 19.6887 23.5013C19.6887 23.041 19.3156 22.6679 18.8553 22.6679H16.831V21.5472C18.0609 21.377 19.2138 20.8319 20.1107 19.9759C21.2089 18.9277 21.8336 17.4975 21.8336 15.9976V14.6337C21.8336 14.1735 21.4604 13.8004 21.0002 13.8004C20.5399 13.8004 20.1668 14.1735 20.1668 14.6337V15.9976C20.1668 17.0297 19.7376 18.0279 18.9599 18.7702C18.1809 19.5137 17.1164 19.9378 15.9988 19.9378C14.8812 19.9378 13.8167 19.5137 13.0377 18.7702C12.26 18.0279 11.8308 17.0298 11.8308 15.9976V14.6337Z" fill="#E75A5A"/>
</svg>
