<svg width="18" height="18" viewBox="0 0 18 18" fill="none" xmlns="http://www.w3.org/2000/svg">
<path d="M16.4359 6.92797C16.3573 6.68708 16.2097 6.4746 16.0114 6.31693C15.813 6.15926 15.5727 6.06336 15.3203 6.04114L11.6359 5.72247L10.1945 2.28762C10.0953 2.05404 9.92964 1.8548 9.71803 1.71474C9.50642 1.57468 9.25828 1.5 9.00452 1.5C8.75076 1.5 8.50261 1.57468 8.291 1.71474C8.0794 1.8548 7.91369 2.05404 7.81453 2.28762L6.37117 5.72247L2.68681 6.04114C2.43304 6.06215 2.19112 6.15764 1.99141 6.31563C1.79171 6.47363 1.64311 6.68708 1.56426 6.92921C1.48542 7.17134 1.47984 7.43136 1.54822 7.67665C1.6166 7.92194 1.75591 8.14157 1.94865 8.30799L4.74876 10.7513L3.90847 14.3865C3.85084 14.6341 3.86746 14.8931 3.95624 15.1312C4.04503 15.3694 4.20204 15.5761 4.40765 15.7255C4.61326 15.8749 4.85835 15.9603 5.11228 15.9712C5.3662 15.9821 5.6177 15.9179 5.83532 15.7866L9.00258 13.863L12.1698 15.7866C12.3874 15.9177 12.6389 15.9817 12.8927 15.9707C13.1465 15.9598 13.3914 15.8743 13.5969 15.7249C13.8024 15.5755 13.9593 15.3689 14.0481 15.1309C14.1369 14.8929 14.1536 14.634 14.096 14.3865L13.2557 10.7513L16.0559 8.30799C16.2481 8.14096 16.3867 7.92089 16.4543 7.67538C16.5219 7.42987 16.5155 7.16986 16.4359 6.92797ZM12.1214 9.68283C11.9441 9.83706 11.8122 10.0367 11.7399 10.2602C11.6676 10.4838 11.6576 10.7228 11.7109 10.9517L12.4471 14.1396L9.67158 12.4539C9.47002 12.3311 9.23857 12.2662 9.00258 12.2662C8.76658 12.2662 8.53514 12.3311 8.33358 12.4539L5.55803 14.1396L6.29425 10.9517C6.34761 10.7228 6.33758 10.4838 6.26527 10.2602C6.19295 10.0367 6.06107 9.83706 5.8838 9.68283L3.42175 7.53492L6.66269 7.25439C6.89738 7.23429 7.12206 7.15021 7.31227 7.01128C7.50249 6.87235 7.65095 6.6839 7.74149 6.46645L9.00258 3.46144L10.2637 6.46645C10.3542 6.6839 10.5027 6.87235 10.6929 7.01128C10.8831 7.15021 11.1078 7.23429 11.3425 7.25439L14.5834 7.53492L12.1214 9.68283Z" fill="#121922"/>
</svg>
