<svg width="14" height="14" viewBox="0 0 14 14" fill="none" xmlns="http://www.w3.org/2000/svg">
<path d="M2.69824 10.4317C2.69824 9.99477 3.03564 9.5554 3.92949 9.19628C4.78805 8.85133 5.93788 8.68599 7.00033 8.68599C8.06277 8.68599 9.2126 8.85133 10.0712 9.19628C10.965 9.5554 11.3024 9.99477 11.3024 10.4317V11.0837C11.3024 11.6877 10.8127 12.1774 10.2087 12.1774H3.79199C3.18793 12.1774 2.69824 11.6877 2.69824 11.0837V10.4317ZM9.17741 3.91209C9.17741 5.04396 8.22 6.00094 7.00033 6.00094C5.78066 6.00094 4.82324 5.04396 4.82324 3.91209C4.82324 2.78022 5.78066 1.82324 7.00033 1.82324C8.22 1.82324 9.17741 2.78022 9.17741 3.91209Z" stroke="#71869D" stroke-width="1.3125"/>
</svg>
