<svg width="24" height="24" viewBox="0 0 24 24" fill="none" xmlns="http://www.w3.org/2000/svg">
<path fill-rule="evenodd" clip-rule="evenodd" d="M9.49891 4.10298L13.0578 4.10298C13.5577 4.10298 13.963 4.50825 13.963 5.00817C13.963 5.5081 13.5577 5.91337 13.0578 5.91337H9.53754C8.53685 5.91337 7.84077 5.91408 7.29918 5.95833C6.76816 6.00171 6.46585 6.08241 6.23822 6.19839C5.74617 6.4491 5.34613 6.84915 5.09542 7.3412C4.97943 7.56883 4.89874 7.87113 4.85535 8.40216C4.8111 8.94375 4.8104 9.63983 4.8104 10.6405V14.4625C4.8104 15.4632 4.8111 16.1592 4.85535 16.7008C4.89874 17.2318 4.97943 17.5342 5.09542 17.7618C5.34613 18.2538 5.74617 18.6539 6.23822 18.9046C6.46585 19.0206 6.76816 19.1013 7.29918 19.1447C7.84078 19.1889 8.53685 19.1896 9.53754 19.1896H13.3595C14.3602 19.1896 15.0563 19.1889 15.5978 19.1447C16.1289 19.1013 16.4312 19.0206 16.6588 18.9046C17.1509 18.6539 17.5509 18.2538 17.8016 17.7618C17.9176 17.5342 17.9983 17.2318 18.0417 16.7008C18.0859 16.1592 18.0866 15.4632 18.0866 14.4625V10.9422C18.0866 10.4423 18.4919 10.0371 18.9918 10.0371C19.4918 10.0371 19.897 10.4423 19.897 10.9422V14.5011C19.897 15.4541 19.897 16.2242 19.8461 16.8482C19.7935 17.4912 19.6824 18.0583 19.4147 18.5837C18.9904 19.4164 18.3134 20.0934 17.4807 20.5177C16.9553 20.7854 16.3882 20.8965 15.7453 20.949C15.1213 21 14.3511 21 13.3981 21H9.49891C8.54594 21 7.77576 21 7.15176 20.949C6.50878 20.8965 5.9417 20.7854 5.41632 20.5177C4.58362 20.0934 3.90662 19.4164 3.48234 18.5837C3.21465 18.0583 3.1035 17.4912 3.05097 16.8482C2.99998 16.2242 2.99999 15.4541 3 14.5011V10.6019C2.99999 9.64892 2.99998 8.87874 3.05097 8.25473C3.1035 7.61175 3.21465 7.04468 3.48234 6.51929C3.90662 5.6866 4.58362 5.0096 5.41632 4.58532C5.9417 4.31762 6.50878 4.20648 7.15176 4.15394C7.77576 4.10296 8.54594 4.10297 9.49891 4.10298Z" fill="#ADBFDF"/>
<path fill-rule="evenodd" clip-rule="evenodd" d="M19.1172 3.32404C19.5493 2.89199 20.2498 2.89199 20.6818 3.32404C21.1139 3.7561 21.1139 4.4566 20.6818 4.88866L20.3262 5.24426C20.1691 5.40137 19.9144 5.40137 19.7573 5.24426L18.7616 4.24859C18.6045 4.09148 18.6045 3.83675 18.7616 3.67964L19.1172 3.32404ZM18.5131 5.91359L18.0864 5.48688C17.647 5.04748 17.3623 5.0731 16.9485 5.48688C15.2298 7.20559 13.5111 8.9243 11.7923 10.643C9.82845 12.6069 8.58665 14.5492 9.0187 14.9813C9.45076 15.4133 11.3931 14.1715 13.357 12.2076C15.0757 10.4889 16.7943 8.77015 18.5131 7.0515C18.9525 6.6121 18.9269 6.32737 18.5131 5.91359Z" fill="#ADBFDF"/>
</svg>
