<svg width="22" height="20" viewBox="0 0 22 20" fill="none" xmlns="http://www.w3.org/2000/svg">
<path d="M10.1253 4.83921L5.70403 9.08166C5.45578 9.31988 5.31543 9.64905 5.31543 9.99311V14.7368C5.31543 15.4345 5.88098 16 6.57862 16H9.18211C9.4012 16 9.5788 15.8224 9.5788 15.6033V13.0575C9.5788 12.2726 10.2151 11.6364 10.9999 11.6364C11.7848 11.6364 12.421 12.2726 12.421 13.0575V15.6033C12.421 15.8224 12.5987 16 12.8177 16H15.4212C16.1189 16 16.6844 15.4345 16.6844 14.7368V9.99311C16.6844 9.64905 16.5441 9.31988 16.2958 9.08166L11.8745 4.83921C11.3858 4.37023 10.6141 4.37023 10.1253 4.83921Z" stroke="#121922" stroke-width="1.26319" stroke-linejoin="round"/>
</svg>
