<svg width="20" height="20" viewBox="0 0 20 20" fill="none" xmlns="http://www.w3.org/2000/svg">
<path d="M5.5 7.75134H8.5" stroke="#BFCBE0" stroke-width="1.41667" stroke-linecap="round" stroke-linejoin="round"/>
<path d="M16.6248 8.50128H14.6733C13.3345 8.50128 12.25 9.50853 12.25 10.7513C12.25 11.994 13.3352 13.0013 14.6725 13.0013H16.6248C16.6878 13.0013 16.7185 13.0013 16.7448 12.9998C17.1498 12.975 17.4722 12.6758 17.4985 12.3C17.5 12.276 17.5 12.2468 17.5 12.189V9.31353C17.5 9.25578 17.5 9.22653 17.4985 9.20253C17.4715 8.82678 17.1498 8.52753 16.7448 8.50278C16.7185 8.50128 16.6878 8.50128 16.6248 8.50128Z" stroke="#BFCBE0" stroke-width="1.41667"/>
<path d="M16.7238 8.50128C16.6653 7.09728 16.4777 6.23628 15.871 5.63028C14.9927 4.75128 13.5782 4.75128 10.75 4.75128H8.5C5.67175 4.75128 4.25725 4.75128 3.379 5.63028C2.5 6.50853 2.5 7.92303 2.5 10.7513C2.5 13.5795 2.5 14.994 3.379 15.8723C4.25725 16.7513 5.67175 16.7513 8.5 16.7513H10.75C13.5782 16.7513 14.9927 16.7513 15.871 15.8723C16.4777 15.2663 16.666 14.4053 16.7238 13.0013" stroke="#BFCBE0" stroke-width="1.41667"/>
<path d="M5.5 4.75174L8.30125 2.89399C8.6952 2.63774 9.15505 2.50134 9.625 2.50134C10.095 2.50134 10.5548 2.63774 10.9487 2.89399L13.75 4.75174" stroke="#BFCBE0" stroke-width="1.41667" stroke-linecap="round"/>
<path d="M14.4941 10.7513H14.5016" stroke="#BFCBE0" stroke-width="1.5" stroke-linecap="round" stroke-linejoin="round"/>
</svg>
