<svg width="25" height="24" viewBox="0 0 25 24" fill="none" xmlns="http://www.w3.org/2000/svg">
<path fill-rule="evenodd" clip-rule="evenodd" d="M12.1992 22C17.7221 22 22.1992 17.5228 22.1992 12C22.1992 6.47715 17.7221 2 12.1992 2C6.67637 2 2.19922 6.47715 2.19922 12C2.19922 17.5228 6.67637 22 12.1992 22ZM12.1992 4.85714C12.9882 4.85714 13.6278 5.49674 13.6278 6.28571V13.4286C13.6278 14.2176 12.9882 14.8571 12.1992 14.8571C11.4102 14.8571 10.7706 14.2176 10.7706 13.4286V6.28571C10.7706 5.49674 11.4102 4.85714 12.1992 4.85714ZM12.1993 19.1429C13.0671 19.1429 13.7707 18.5033 13.7707 17.7143C13.7707 16.9253 13.0671 16.2857 12.1993 16.2857C11.3314 16.2857 10.6278 16.9253 10.6278 17.7143C10.6278 18.5033 11.3314 19.1429 12.1993 19.1429Z" fill="#E75A5A"/>
</svg>
