<svg width="22" height="22" viewBox="0 0 22 22" fill="none" xmlns="http://www.w3.org/2000/svg">
<path fill-rule="evenodd" clip-rule="evenodd" d="M11 18C14.866 18 18 14.866 18 11C18 7.13401 14.866 4 11 4C7.13401 4 4 7.13401 4 11C4 14.866 7.13401 18 11 18ZM11 6C11.5523 6 12 6.44772 12 7V12C12 12.5523 11.5523 13 11 13C10.4477 13 10 12.5523 10 12V7C10 6.44772 10.4477 6 11 6ZM11 16C11.6075 16 12.1 15.5523 12.1 15C12.1 14.4477 11.6075 14 11 14C10.3925 14 9.90002 14.4477 9.90002 15C9.90002 15.5523 10.3925 16 11 16Z" fill="#E75A5A"/>
</svg>
