<svg width="32" height="32" viewBox="0 0 32 32" fill="none" xmlns="http://www.w3.org/2000/svg">
<rect width="32" height="32" rx="16" fill="#D7DEE7"/>
<path d="M12.6374 9C12.4445 9 12.2596 9.07662 12.1232 9.21299C11.9868 9.34937 11.9102 9.53434 11.9102 9.7272V11.1816C11.9102 11.3745 11.9868 11.5594 12.1232 11.6958C12.2596 11.8322 12.4445 11.9088 12.6374 11.9088C12.8303 11.9088 13.0153 11.8322 13.1517 11.6958C13.2881 11.5594 13.3647 11.3745 13.3647 11.1816V9.7272C13.3647 9.53434 13.2881 9.34937 13.1517 9.21299C13.0153 9.07662 12.8303 9 12.6374 9Z" fill="#71869D"/>
<path fill-rule="evenodd" clip-rule="evenodd" d="M17.7273 22.8176C18.7585 22.8175 19.7564 22.4522 20.5441 21.7867C21.3318 21.1212 21.8584 20.1982 22.0305 19.1816H22.0909C22.8624 19.1816 23.6024 18.8751 24.1479 18.3296C24.6935 17.7841 25 17.0442 25 16.2727C25 15.5013 24.6935 14.7614 24.1479 14.2159C23.6024 13.6704 22.8624 13.3639 22.0909 13.3639V12.6367H9V18.4544C9 19.6116 9.45974 20.7214 10.2781 21.5396C11.0964 22.3579 12.2063 22.8176 13.3636 22.8176H17.7273ZM10.4545 14.0911V18.4544C10.4545 19.2258 10.761 19.9657 11.3066 20.5112C11.8522 21.0567 12.5921 21.3632 13.3636 21.3632H17.7273C18.4988 21.3632 19.2388 21.0567 19.7843 20.5112C20.3299 19.9657 20.6364 19.2258 20.6364 18.4544V14.0911H10.4545ZM23.5455 16.2727C23.5455 16.6585 23.3922 17.0284 23.1194 17.3012C22.8466 17.5739 22.4767 17.7272 22.0909 17.7272V14.8183C22.4767 14.8183 22.8466 14.9716 23.1194 15.2443C23.3922 15.5171 23.5455 15.887 23.5455 16.2727Z" fill="#71869D"/>
<path d="M14.8164 9.7272C14.8164 9.53434 14.893 9.34937 15.0294 9.21299C15.1658 9.07662 15.3508 9 15.5437 9C15.7366 9 15.9215 9.07662 16.0579 9.21299C16.1943 9.34937 16.271 9.53434 16.271 9.7272V11.1816C16.271 11.3745 16.1943 11.5594 16.0579 11.6958C15.9215 11.8322 15.7366 11.9088 15.5437 11.9088C15.3508 11.9088 15.1658 11.8322 15.0294 11.6958C14.893 11.5594 14.8164 11.3745 14.8164 11.1816V9.7272ZM18.4528 9C18.2599 9 18.0749 9.07662 17.9385 9.21299C17.8021 9.34937 17.7255 9.53434 17.7255 9.7272V11.1816C17.7255 11.3745 17.8021 11.5594 17.9385 11.6958C18.0749 11.8322 18.2599 11.9088 18.4528 11.9088C18.6457 11.9088 18.8306 11.8322 18.967 11.6958C19.1034 11.5594 19.18 11.3745 19.18 11.1816V9.7272C19.18 9.53434 19.1034 9.34937 18.967 9.21299C18.8306 9.07662 18.6457 9 18.4528 9Z" fill="#71869D"/>
</svg>
