<svg width="18" height="18" viewBox="0 0 18 18" fill="none" xmlns="http://www.w3.org/2000/svg">
<path fill-rule="evenodd" clip-rule="evenodd" d="M3 13.125L2.99999 13.1248C2.99949 13.1169 2.98193 12.84 3.81407 12.495C4.59255 12.1721 5.69409 12 6.75 12C7.80591 12 8.90745 12.1721 9.68593 12.495C10.5181 12.84 10.5005 13.1169 10.5 13.1248L10.5 13.125V13.5C10.5 13.9142 10.1642 14.25 9.75 14.25H3.75C3.33579 14.25 3 13.9142 3 13.5V13.125ZM8.25 6C8.25 6.82586 7.57586 7.5 6.75 7.5C5.92414 7.5 5.25 6.82586 5.25 6C5.25 5.17414 5.92414 4.5 6.75 4.5C7.57586 4.5 8.25 5.17414 8.25 6ZM6.75 10.5C4.38862 10.5 1.5 11.25 1.5 13.125V13.5C1.5 14.7426 2.50736 15.75 3.75 15.75H9.75C10.9926 15.75 12 14.7426 12 13.5V13.125C12 11.25 9.11138 10.5 6.75 10.5ZM6.75 9C8.40429 9 9.75 7.65429 9.75 6C9.75 4.34571 8.40429 3 6.75 3C5.09571 3 3.75 4.34571 3.75 6C3.75 7.65429 5.09571 9 6.75 9ZM13.5 13.125C13.5 11.8125 12.87 11.13 12 10.5C13.875 10.5 16.5 11.61 16.5 13.125V13.5C16.5 14.7426 15.4926 15.75 14.25 15.75H12.75C12.75 15.75 13.5 14.4375 13.5 13.125ZM13.875 6C13.875 7.4475 12.6975 8.625 11.25 8.625C10.845 8.625 10.47 8.5275 10.125 8.3625C10.5975 7.695 10.875 6.8775 10.875 6C10.875 5.1225 10.5975 4.305 10.125 3.6375C10.47 3.4725 10.845 3.375 11.25 3.375C12.6975 3.375 13.875 4.5525 13.875 6Z" fill="#121922"/>
</svg>
