<svg width="24" height="24" viewBox="0 0 24 24" fill="none" xmlns="http://www.w3.org/2000/svg">
<path fill-rule="evenodd" clip-rule="evenodd" d="M6.91417 11L10.8535 7.06067C11.0488 6.86541 11.0488 6.54883 10.8535 6.35357L10.1464 5.64646C9.95114 5.4512 9.63456 5.4512 9.43929 5.64646L3.43929 11.6465C3.24403 11.8417 3.24403 12.1583 3.43929 12.3536L9.43929 18.3536C9.63456 18.5488 9.95114 18.5488 10.1464 18.3536L10.8535 17.6465C11.0488 17.4512 11.0488 17.1346 10.8535 16.9394L6.91417 13L20 13C20.2761 13 20.5 12.7762 20.5 12.5L20.5 11.5C20.5 11.2239 20.2761 11 20 11L6.91417 11Z" fill="#002CFB"/>
</svg>
