<svg width="16" height="17" viewBox="0 0 16 17" fill="none" xmlns="http://www.w3.org/2000/svg">
<path fill-rule="evenodd" clip-rule="evenodd" d="M7 9.3C7.11046 9.3 7.2 9.38954 7.2 9.5L7.2 15.1C7.2 15.3209 7.37909 15.5 7.6 15.5H8.4C8.62091 15.5 8.8 15.3209 8.8 15.1V9.5C8.8 9.38954 8.88954 9.3 9 9.3H14.6C14.8209 9.3 15 9.12091 15 8.9V8.1C15 7.87909 14.8209 7.7 14.6 7.7H9C8.88954 7.7 8.8 7.61046 8.8 7.5V1.9C8.8 1.67909 8.62091 1.5 8.4 1.5H7.6C7.37909 1.5 7.2 1.67909 7.2 1.9L7.2 7.5C7.2 7.61046 7.11046 7.7 7 7.7H1.4C1.17909 7.7 1 7.87909 1 8.1V8.9C1 9.12091 1.17909 9.3 1.4 9.3H7Z" fill="white"/>
</svg>
