<svg width="24" height="25" viewBox="0 0 24 25" fill="none" xmlns="http://www.w3.org/2000/svg">
<path fill-rule="evenodd" clip-rule="evenodd" d="M5.96781 2.94812C5.96781 2.67043 6.19292 2.44531 6.47061 2.44531H7.47618C7.75387 2.44531 7.97898 2.67043 7.97898 2.94812V4.51159H16.0237V2.94812C16.0237 2.67043 16.2488 2.44531 16.5265 2.44531H17.532C17.8097 2.44531 18.0348 2.67043 18.0348 2.94812V4.51159H18.5363C20.4493 4.51159 22 6.06237 22 7.97535V19.0374C22 20.9504 20.4493 22.5012 18.5363 22.5012H5.46376C3.55077 22.5012 2 20.9504 2 19.0374V7.97535C2 6.06237 3.55078 4.51159 5.46376 4.51159H5.96781V2.94812ZM3.89948 19.0374V9.14952H20.1006V19.0374C20.1006 19.9013 19.4002 20.6017 18.5363 20.6017H5.46376C4.59983 20.6017 3.89948 19.9013 3.89948 19.0374ZM13.5084 14.5138C13.2307 14.5138 13.0056 14.7389 13.0056 15.0166V18.0335C13.0056 18.3112 13.2307 18.5363 13.5084 18.5363H17.5307C17.8084 18.5363 18.0335 18.3112 18.0335 18.0335V15.0166C18.0335 14.7389 17.8084 14.5138 17.5307 14.5138H13.5084Z" fill="#9397A6"/>
</svg>
