<svg width="16" height="16" viewBox="0 0 16 16" fill="none" xmlns="http://www.w3.org/2000/svg">
<path fill-rule="evenodd" clip-rule="evenodd" d="M12.9274 2.06502C12.4067 1.54432 11.5625 1.54433 11.0418 2.06502L10.3378 2.76893L13.6872 6.11728L14.3906 5.41387C14.9113 4.89317 14.9113 4.04895 14.3906 3.52825L12.9274 2.06502ZM4.94553 8.16124L9.5836 3.52318L12.9329 6.87153L8.29512 11.5093C7.89708 11.9074 7.34974 12.1193 6.78745 12.0929L5.07618 12.0129C4.7324 11.9968 4.45736 11.7217 4.44138 11.3779L4.3619 9.66834C4.33577 9.10624 4.54764 8.55914 4.94553 8.16124ZM1.66671 13.3334C1.48261 13.3334 1.33337 13.4826 1.33337 13.6667V14.3334C1.33337 14.5174 1.48261 14.6667 1.66671 14.6667H11.6667C11.8508 14.6667 12 14.5174 12 14.3334V13.6667C12 13.4826 11.8508 13.3334 11.6667 13.3334H1.66671Z" fill="white"/>
</svg>
