<svg width="22" height="22" viewBox="0 0 22 22" fill="none" xmlns="http://www.w3.org/2000/svg">
<path d="M11.5365 9.8012C11.512 9.66595 11.4378 9.54478 11.3284 9.46154C11.2191 9.37829 11.0825 9.33901 10.9456 9.35143C10.8087 9.36385 10.6815 9.42707 10.5889 9.52863C10.4963 9.6302 10.4451 9.76275 10.4453 9.9002V14.8524L10.4541 14.9514C10.4786 15.0866 10.5528 15.2078 10.6622 15.2911C10.7716 15.3743 10.9081 15.4136 11.045 15.4012C11.1819 15.3887 11.3092 15.3255 11.4018 15.224C11.4944 15.1224 11.5456 14.9898 11.5453 14.8524V9.9002L11.5365 9.8012ZM11.8742 7.4252C11.8742 7.20639 11.7873 6.99655 11.6326 6.84183C11.4779 6.68711 11.268 6.6002 11.0492 6.6002C10.8304 6.6002 10.6206 6.68711 10.4658 6.84183C10.3111 6.99655 10.2242 7.20639 10.2242 7.4252C10.2242 7.644 10.3111 7.85384 10.4658 8.00856C10.6206 8.16328 10.8304 8.2502 11.0492 8.2502C11.268 8.2502 11.4779 8.16328 11.6326 8.00856C11.7873 7.85384 11.8742 7.644 11.8742 7.4252ZM19.7953 11.0002C19.7953 8.66629 18.8682 6.42798 17.2179 4.77766C15.5675 3.12734 13.3292 2.2002 10.9953 2.2002C8.66141 2.2002 6.42309 3.12734 4.77277 4.77766C3.12245 6.42798 2.19531 8.66629 2.19531 11.0002C2.19531 13.3341 3.12245 15.5724 4.77277 17.2227C6.42309 18.8731 8.66141 19.8002 10.9953 19.8002C13.3292 19.8002 15.5675 18.8731 17.2179 17.2227C18.8682 15.5724 19.7953 13.3341 19.7953 11.0002ZM3.29531 11.0002C3.29531 9.98902 3.49448 8.98774 3.88144 8.05353C4.2684 7.11933 4.83558 6.27048 5.55059 5.55547C6.2656 4.84046 7.11444 4.27328 8.04865 3.88632C8.98286 3.49936 9.98413 3.3002 10.9953 3.3002C12.0065 3.3002 13.0078 3.49936 13.942 3.88632C14.8762 4.27328 15.725 4.84046 16.44 5.55547C17.155 6.27048 17.7222 7.11933 18.1092 8.05353C18.4961 8.98774 18.6953 9.98902 18.6953 11.0002C18.6953 13.0424 17.8841 15.0009 16.44 16.4449C14.996 17.8889 13.0375 18.7002 10.9953 18.7002C8.95315 18.7002 6.99462 17.8889 5.55059 16.4449C4.10656 15.0009 3.29531 13.0424 3.29531 11.0002Z" fill="#BFCBE0"/>
</svg>
