<svg width="16" height="17" viewBox="0 0 16 17" fill="none" xmlns="http://www.w3.org/2000/svg">
<path d="M2.4 2.47461C2.17909 2.47461 2 2.6537 2 2.87461V7.59461V8.87461V10.1546V12.4504C2 12.6106 2.09563 12.7554 2.24302 12.8183L7.84302 15.2076C7.9433 15.2504 8.0567 15.2504 8.15698 15.2076L13.757 12.8183C13.9044 12.7554 14 12.6106 14 12.4504V10.1546V8.87461V7.59461V2.87461C14 2.6537 13.8209 2.47461 13.6 2.47461H2.4ZM3.33333 4.15461C3.33333 3.9337 3.51242 3.75461 3.73333 3.75461H12.2667C12.4876 3.75461 12.6667 3.9337 12.6667 4.15461V6.49838C12.6667 6.65863 12.571 6.80341 12.4236 6.8663L8.15697 8.68668C8.0567 8.72946 7.9433 8.72946 7.84303 8.68668L3.57636 6.8663C3.42897 6.80341 3.33333 6.65863 3.33333 6.49838V4.15461ZM12.6667 11.6184C12.6667 11.7786 12.571 11.9234 12.4236 11.9863L8.15697 13.8067C8.0567 13.8495 7.9433 13.8495 7.84303 13.8067L3.57636 11.9863C3.42897 11.9234 3.33333 11.7786 3.33333 11.6184V11.45C3.33333 11.1631 3.62638 10.9695 3.89025 11.082L7.45867 12.6039L7.84308 12.768C7.94332 12.8107 8.05669 12.8108 8.15695 12.768L8.542 12.6039L12.1097 11.0821C12.3736 10.9695 12.6667 11.1631 12.6667 11.45V11.6184ZM12.6667 9.17934C12.6667 9.33959 12.571 9.48437 12.4236 9.54726L8.15697 11.3676C8.0567 11.4104 7.9433 11.4104 7.84303 11.3676L3.57636 9.54726C3.42897 9.48437 3.33333 9.33959 3.33333 9.17934V8.76911C3.33333 8.48223 3.62643 8.28862 3.8903 8.4012L7.84303 10.0876C7.9433 10.1304 8.0567 10.1304 8.15697 10.0876L12.1097 8.4012C12.3736 8.28862 12.6667 8.48223 12.6667 8.76911V9.17934Z" fill="#71869D"/>
</svg>
