<svg width="18" height="18" viewBox="0 0 18 18" fill="none" xmlns="http://www.w3.org/2000/svg">
<path fill-rule="evenodd" clip-rule="evenodd" d="M4.95015 2.5875C4.95015 2.4011 5.10125 2.25 5.28765 2.25H5.96265C6.14904 2.25 6.30015 2.4011 6.30015 2.5875V3.60001H11.7001V2.5875C11.7001 2.4011 11.8512 2.25 12.0376 2.25H12.7126C12.899 2.25 13.0501 2.4011 13.0501 2.5875V3.60001H13.3875C14.6923 3.60001 15.75 4.65774 15.75 5.96251V13.3875C15.75 14.6923 14.6923 15.75 13.3875 15.75H4.6125C3.30773 15.75 2.25 14.6923 2.25 13.3875V5.96251C2.25 4.65774 3.30773 3.60001 4.6125 3.60001H4.95015V2.5875ZM3.6 13.3875V6.97498H14.4V13.3875C14.4 13.9467 13.9467 14.4 13.3875 14.4H4.6125C4.05331 14.4 3.6 13.9467 3.6 13.3875ZM10.0125 10.35C9.8261 10.35 9.675 10.5011 9.675 10.6875V12.7125C9.675 12.8989 9.8261 13.05 10.0125 13.05H12.7125C12.8989 13.05 13.05 12.8989 13.05 12.7125V10.6875C13.05 10.5011 12.8989 10.35 12.7125 10.35H10.0125Z" fill="#121922"/>
</svg>
