<svg width="24" height="25" viewBox="0 0 24 25" fill="none" xmlns="http://www.w3.org/2000/svg">
<path d="M21.9146 9.68395C21.8098 9.36276 21.6129 9.07945 21.3485 8.86923C21.084 8.659 20.7636 8.53113 20.427 8.5015L15.5146 8.07662L13.5927 3.49682C13.4605 3.18537 13.2395 2.91972 12.9574 2.73298C12.6752 2.54623 12.3444 2.44666 12.006 2.44666C11.6677 2.44666 11.3368 2.54623 11.0547 2.73298C10.7725 2.91972 10.5516 3.18537 10.4194 3.49682L8.4949 8.07662L3.58242 8.5015C3.24405 8.52952 2.92149 8.65685 2.65522 8.8675C2.38894 9.07816 2.19081 9.36276 2.08568 9.6856C1.98056 10.0084 1.97311 10.3551 2.06429 10.6822C2.15547 11.0092 2.34121 11.3021 2.5982 11.524L6.33168 14.7817L5.21129 19.6287C5.13445 19.9587 5.15661 20.3041 5.27499 20.6216C5.39337 20.9392 5.60272 21.2148 5.87687 21.414C6.15102 21.6132 6.4778 21.7271 6.81637 21.7416C7.15494 21.7561 7.49026 21.6705 7.78043 21.4954L12.0034 18.9306L16.2264 21.4954C16.5166 21.6702 16.8518 21.7556 17.1902 21.741C17.5286 21.7263 17.8552 21.6123 18.1292 21.4132C18.4032 21.214 18.6125 20.9386 18.7308 20.6212C18.8492 20.3038 18.8714 19.9586 18.7947 19.6287L17.6743 14.7817L21.4078 11.524C21.6641 11.3013 21.8489 11.0078 21.9391 10.6805C22.0293 10.3531 22.0207 10.0065 21.9146 9.68395ZM16.1618 13.3571C15.9255 13.5627 15.7496 13.8289 15.6532 14.127C15.5568 14.4251 15.5434 14.7438 15.6145 15.0489L16.5962 19.2995L12.8954 17.0518C12.6267 16.8881 12.3181 16.8016 12.0034 16.8016C11.6888 16.8016 11.3802 16.8881 11.1114 17.0518L7.4107 19.2995L8.39234 15.0489C8.46347 14.7438 8.45011 14.4251 8.35369 14.127C8.25726 13.8289 8.08142 13.5627 7.84507 13.3571L4.56233 10.4932L8.88358 10.1192C9.1965 10.0924 9.49608 9.98026 9.7497 9.79502C10.0033 9.60979 10.2013 9.35853 10.322 9.06859L12.0034 5.06191L13.6849 9.06859C13.8056 9.35853 14.0036 9.60979 14.2572 9.79502C14.5108 9.98026 14.8104 10.0924 15.1233 10.1192L19.4445 10.4932L16.1618 13.3571Z" fill="#9397A6"/>
</svg>
