<svg width="18" height="18" viewBox="0 0 18 18" fill="none" xmlns="http://www.w3.org/2000/svg">
<path d="M15.0075 3.06H13.455V2.385C13.455 2.31075 13.3942 2.25 13.32 2.25H4.68C4.60575 2.25 4.545 2.31075 4.545 2.385V3.06H2.9925C2.79558 3.06 2.60672 3.13823 2.46747 3.27747C2.32823 3.41672 2.25 3.60558 2.25 3.8025V6.3C2.25 7.67869 3.2625 8.8245 4.58212 9.03375C4.84369 10.9946 6.41812 12.5387 8.3925 12.7547V14.5299H5.085C4.78631 14.5299 4.545 14.7712 4.545 15.0699V15.615C4.545 15.6892 4.60575 15.75 4.68 15.75H13.32C13.3942 15.75 13.455 15.6892 13.455 15.615V15.0699C13.455 14.7712 13.2137 14.5299 12.915 14.5299H9.6075V12.7547C11.5819 12.5387 13.1563 10.9946 13.4179 9.03375C14.7375 8.8245 15.75 7.67869 15.75 6.3V3.8025C15.75 3.60558 15.6718 3.41672 15.5325 3.27747C15.3933 3.13823 15.2044 3.06 15.0075 3.06ZM3.465 6.3V4.275H4.545V7.77825C4.23154 7.67813 3.95801 7.48098 3.76389 7.21528C3.56977 6.94958 3.4651 6.62906 3.465 6.3ZM12.24 8.46C12.24 9.28856 11.9177 10.0699 11.3304 10.6554C10.7432 11.2427 9.96356 11.565 9.135 11.565H8.865C8.03644 11.565 7.25512 11.2427 6.66956 10.6554C6.08231 10.0682 5.76 9.28856 5.76 8.46V3.465H12.24V8.46ZM14.535 6.3C14.535 6.99187 14.0811 7.57912 13.455 7.77825V4.275H14.535V6.3Z" fill="#121922"/>
</svg>
