<svg width="22" height="22" viewBox="0 0 22 22" fill="none" xmlns="http://www.w3.org/2000/svg">
<path d="M13.7386 13.2224L11.3537 11.807V8.60122C11.3537 8.31814 11.1273 8.09168 10.8442 8.09168H10.8017C10.5187 8.09168 10.2922 8.31814 10.2922 8.60122V11.9415C10.2922 12.1892 10.4196 12.4227 10.639 12.5501L13.222 14.0999C13.4626 14.2415 13.774 14.1707 13.9155 13.9301C14.0642 13.6824 13.9863 13.3639 13.7386 13.2224ZM17.4964 5.9757L15.3168 4.16402C15.0195 3.91633 14.5737 3.95171 14.3189 4.25602C14.0712 4.55325 14.1137 4.99909 14.4109 5.25386L16.5835 7.06554C16.8808 7.31323 17.3266 7.27784 17.5814 6.97354C17.6414 6.90247 17.6868 6.82027 17.715 6.73164C17.7432 6.64301 17.7536 6.54969 17.7457 6.45701C17.7379 6.36434 17.7118 6.27413 17.669 6.19154C17.6262 6.10895 17.5676 6.03561 17.4964 5.9757ZM5.40916 7.06554L7.58175 5.25386C7.88606 4.99909 7.92852 4.55325 7.67375 4.25602C7.61508 4.18443 7.54278 4.12519 7.46105 4.08176C7.37931 4.03833 7.28976 4.01155 7.1976 4.003C7.10543 3.99444 7.01248 4.00426 6.92415 4.03191C6.83581 4.05955 6.75384 4.10445 6.68299 4.16402L4.50332 5.9757C4.43217 6.03561 4.37353 6.10895 4.33076 6.19154C4.28798 6.27413 4.2619 6.36434 4.25401 6.45701C4.24613 6.54969 4.25659 6.64301 4.28479 6.73164C4.313 6.82027 4.3584 6.90247 4.41839 6.97354C4.66608 7.27784 5.11193 7.31323 5.40916 7.06554ZM10.9999 5.26093C9.31057 5.26103 7.6905 5.93219 6.49604 7.12678C5.30159 8.32136 4.63061 9.94152 4.6307 11.6308C4.63079 13.3201 5.30196 14.9402 6.49654 16.1347C7.69113 17.3291 9.31128 18.0001 11.0006 18C11.837 18 12.6653 17.8352 13.4381 17.515C14.2108 17.1949 14.913 16.7257 15.5044 16.1342C16.0959 15.5427 16.565 14.8405 16.885 14.0677C17.2051 13.2948 17.3698 12.4666 17.3698 11.6301C17.3697 10.7937 17.2049 9.96539 16.8848 9.19263C16.5646 8.41986 16.0954 7.71771 15.5039 7.12628C14.9124 6.53484 14.2102 6.06571 13.4374 5.74565C12.6646 5.42559 11.8363 5.26089 10.9999 5.26093ZM10.9999 16.5839C8.26821 16.5839 6.04607 14.3618 6.04607 11.6301C6.04607 8.89844 8.26821 6.67631 10.9999 6.67631C13.7315 6.67631 15.9537 8.89844 15.9537 11.6301C15.9537 14.3618 13.7315 16.5839 10.9999 16.5839Z" fill="#121922"/>
</svg>
