<svg width="16" height="17" viewBox="0 0 16 17" fill="none" xmlns="http://www.w3.org/2000/svg">
<path fill-rule="evenodd" clip-rule="evenodd" d="M4.15953 2.66961C4.15953 2.49288 4.3028 2.34961 4.47953 2.34961H5.11953C5.29626 2.34961 5.43953 2.49288 5.43953 2.66961V3.62953H10.5589V2.66961C10.5589 2.49288 10.7022 2.34961 10.8789 2.34961H11.5189C11.6957 2.34961 11.8389 2.49288 11.8389 2.66961V3.62953H12.1586C13.3958 3.62953 14.3986 4.63241 14.3986 5.86953V12.9095C14.3986 14.1466 13.3958 15.1495 12.1586 15.1495H3.83863C2.60152 15.1495 1.59863 14.1466 1.59863 12.9095V5.86953C1.59863 4.63241 2.60152 3.62953 3.83863 3.62953H4.15953V2.66961ZM2.87863 6.82918V12.9095C2.87863 13.4397 3.30844 13.8695 3.83863 13.8695H12.1586C12.6888 13.8695 13.1186 13.4397 13.1186 12.9095V6.82918H2.87863Z" fill="#71869D"/>
</svg>
