<svg width="17" height="16" viewBox="0 0 17 16" fill="none" xmlns="http://www.w3.org/2000/svg">
<g clip-path="url(#clip0_9560_13186)">
<path fill-rule="evenodd" clip-rule="evenodd" d="M1.69922 2.94366C1.69922 1.70739 2.70739 0.699219 3.94366 0.699219H8.99922C9.44105 0.699219 9.79922 1.05739 9.79922 1.49922C9.79922 1.94105 9.44105 2.29922 8.99922 2.29922H3.94366C3.59105 2.29922 3.29922 2.59105 3.29922 2.94366V13.0548C3.29922 13.4074 3.59105 13.6992 3.94366 13.6992H8.99922C9.44105 13.6992 9.79922 14.0574 9.79922 14.4992C9.79922 14.941 9.44105 15.2992 8.99922 15.2992H3.94366C2.70739 15.2992 1.69922 14.291 1.69922 13.0548V2.94366ZM10.4335 4.93353C10.746 4.62111 11.2525 4.62111 11.5649 4.93353L14.0649 7.43353C14.3773 7.74595 14.3773 8.25248 14.0649 8.5649L11.5649 11.0649C11.2525 11.3773 10.746 11.3773 10.4335 11.0649C10.1211 10.7525 10.1211 10.246 10.4335 9.93353L11.5678 8.79922H5.83255C5.39072 8.79922 5.03255 8.44105 5.03255 7.99922C5.03255 7.55739 5.39072 7.19922 5.83255 7.19922H11.5678L10.4335 6.0649C10.1211 5.75248 10.1211 5.24595 10.4335 4.93353Z" fill="white"/>
</g>
<defs>
<clipPath id="clip0_9560_13186">
<rect width="16" height="16" fill="white" transform="translate(0.5)"/>
</clipPath>
</defs>
</svg>
