<svg width="21" height="20" viewBox="0 0 21 20" fill="none" xmlns="http://www.w3.org/2000/svg">
<path d="M18.8467 9.99996C18.8467 9.48849 18.6435 8.99796 18.2819 8.63629C17.9202 8.27462 17.4297 8.07144 16.9182 8.07144H11.1326V7.34824C11.6844 7.20492 12.173 6.88264 12.522 6.43187C12.871 5.98109 13.0606 5.4273 13.0611 4.85723C13.0611 2.60728 10.9366 1.16812 10.8466 1.10785C10.7409 1.03737 10.6168 0.999756 10.4898 0.999756C10.3628 0.999756 10.2386 1.03737 10.133 1.10785C10.043 1.16812 7.91841 2.60728 7.91841 4.85723C7.91895 5.4273 8.10856 5.98109 8.45754 6.43187C8.80652 6.88264 9.29517 7.20492 9.84693 7.34824V8.07144H4.06135C3.54988 8.07144 3.05935 8.27462 2.69768 8.63629C2.33601 8.99796 2.13283 9.48849 2.13283 9.99996V11.8747C2.13349 12.5759 2.35878 13.2586 2.77567 13.8225V17.0712C2.77567 17.5827 2.97885 18.0732 3.34052 18.4349C3.70219 18.7966 4.19272 18.9998 4.7042 18.9998H16.2754C16.7868 18.9998 17.2774 18.7966 17.639 18.4349C18.0007 18.0732 18.2039 17.5827 18.2039 17.0712V13.8225C18.6208 13.2586 18.8461 12.5759 18.8467 11.8747V9.99996ZM9.20409 4.85723C9.20409 3.76681 10.0076 2.89174 10.4898 2.46344C10.9719 2.89174 11.7755 3.76681 11.7755 4.85723C11.7755 5.19821 11.64 5.52523 11.3989 5.76634C11.1578 6.00746 10.8308 6.14291 10.4898 6.14291C10.1488 6.14291 9.82177 6.00746 9.58066 5.76634C9.33955 5.52523 9.20409 5.19821 9.20409 4.85723ZM3.41851 9.99996C3.41851 9.82947 3.48624 9.66596 3.6068 9.54541C3.72735 9.42485 3.89086 9.35712 4.06135 9.35712H16.9182C17.0887 9.35712 17.2522 9.42485 17.3728 9.54541C17.4933 9.66596 17.561 9.82947 17.561 9.99996V11.8747C17.561 12.9394 16.7205 13.8281 15.6872 13.8562C15.4294 13.8635 15.1728 13.8191 14.9325 13.7255C14.6923 13.6319 14.4732 13.4911 14.2883 13.3113C14.1034 13.1316 13.9564 12.9166 13.8561 12.6791C13.7557 12.4416 13.704 12.1863 13.704 11.9285C13.704 11.758 13.6363 11.5945 13.5157 11.4739C13.3951 11.3534 13.2316 11.2856 13.0611 11.2856C12.8907 11.2856 12.7271 11.3534 12.6066 11.4739C12.486 11.5945 12.4183 11.758 12.4183 11.9285C12.4183 12.44 12.2151 12.9305 11.8534 13.2922C11.4918 13.6538 11.0013 13.857 10.4898 13.857C9.9783 13.857 9.48777 13.6538 9.1261 13.2922C8.76443 12.9305 8.56125 12.44 8.56125 11.9285C8.56125 11.758 8.49352 11.5945 8.37296 11.4739C8.25241 11.3534 8.0889 11.2856 7.91841 11.2856C7.74791 11.2856 7.5844 11.3534 7.46385 11.4739C7.34329 11.5945 7.27556 11.758 7.27556 11.9285C7.27567 12.1864 7.22403 12.4417 7.12372 12.6793C7.0234 12.917 6.87644 13.132 6.69153 13.3119C6.50662 13.4917 6.28753 13.6326 6.0472 13.7262C5.80688 13.8198 5.55021 13.8643 5.2924 13.857C4.25903 13.8281 3.41851 12.9394 3.41851 11.8747V9.99996ZM16.2754 17.7141H4.7042C4.5337 17.7141 4.37019 17.6463 4.24964 17.5258C4.12908 17.4052 4.06135 17.2417 4.06135 17.0712V14.8663C4.43765 15.0368 4.84409 15.1308 5.25704 15.1427C5.68666 15.1561 6.11455 15.0824 6.515 14.9263C6.91545 14.7701 7.2802 14.5346 7.58734 14.2339C7.70726 14.117 7.81795 13.991 7.91841 13.857C8.2178 14.2562 8.60603 14.5802 9.05234 14.8034C9.49865 15.0265 9.99078 15.1427 10.4898 15.1427C10.9888 15.1427 11.4809 15.0265 11.9272 14.8034C12.3735 14.5802 12.7617 14.2562 13.0611 13.857C13.1619 13.9905 13.2729 14.1159 13.393 14.2323C13.991 14.818 14.7954 15.145 15.6325 15.1427H15.7241C16.1365 15.1305 16.5424 15.0366 16.9182 14.8663V17.0712C16.9182 17.2417 16.8505 17.4052 16.7299 17.5258C16.6094 17.6463 16.4458 17.7141 16.2754 17.7141Z" fill="white"/>
</svg>
