<svg width="24" height="25" viewBox="0 0 24 25" fill="none" xmlns="http://www.w3.org/2000/svg">
<path d="M6.59961 9.74609H10.1996" stroke="#9397A6" stroke-width="1.7" stroke-linecap="round" stroke-linejoin="round"/>
<path d="M19.9489 10.6445H17.6071C16.0006 10.6445 14.6992 11.8532 14.6992 13.3445C14.6992 14.8358 16.0015 16.0445 17.6062 16.0445H19.9489C20.0245 16.0445 20.0614 16.0445 20.0929 16.0427C20.5789 16.013 20.9659 15.6539 20.9974 15.203C20.9992 15.1742 20.9992 15.1391 20.9992 15.0698V11.6192C20.9992 11.5499 20.9992 11.5148 20.9974 11.486C20.965 11.0351 20.5789 10.676 20.0929 10.6463C20.0614 10.6445 20.0245 10.6445 19.9489 10.6445Z" stroke="#9397A6" stroke-width="1.7"/>
<path d="M20.0685 10.6445C19.9983 8.95973 19.7733 7.92653 19.0452 7.19933C17.9913 6.14453 16.2939 6.14453 12.9 6.14453H10.2C6.8061 6.14453 5.1087 6.14453 4.0548 7.19933C3 8.25323 3 9.95063 3 13.3445C3 16.7384 3 18.4358 4.0548 19.4897C5.1087 20.5445 6.8061 20.5445 10.2 20.5445H12.9C16.2939 20.5445 17.9913 20.5445 19.0452 19.4897C19.7733 18.7625 19.9992 17.7293 20.0685 16.0445" stroke="#9397A6" stroke-width="1.7"/>
<path d="M6.59961 6.14579L9.96111 3.91649C10.4338 3.60899 10.9857 3.44531 11.5496 3.44531C12.1136 3.44531 12.6654 3.60899 13.1381 3.91649L16.4996 6.14579" stroke="#9397A6" stroke-width="1.7" stroke-linecap="round"/>
<path d="M17.3926 13.3438H17.4016" stroke="#9397A6" stroke-width="1.8" stroke-linecap="round" stroke-linejoin="round"/>
</svg>
