<svg width="24" height="24" viewBox="0 0 24 24" fill="none" xmlns="http://www.w3.org/2000/svg">
<path d="M12.5888 10.6904C12.5621 10.5429 12.4811 10.4107 12.3618 10.3199C12.2425 10.2291 12.0935 10.1862 11.9442 10.1998C11.7949 10.2133 11.6561 10.2823 11.555 10.3931C11.454 10.5039 11.3982 10.6485 11.3984 10.7984V16.2008L11.408 16.3088C11.4348 16.4564 11.5157 16.5886 11.635 16.6794C11.7543 16.7702 11.9033 16.813 12.0527 16.7995C12.202 16.7859 12.3408 16.717 12.4418 16.6062C12.5428 16.4954 12.5987 16.3508 12.5984 16.2008V10.7984L12.5888 10.6904ZM12.9572 8.09844C12.9572 7.85974 12.8624 7.63082 12.6936 7.46204C12.5249 7.29326 12.2959 7.19844 12.0572 7.19844C11.8185 7.19844 11.5896 7.29326 11.4208 7.46204C11.2521 7.63082 11.1572 7.85974 11.1572 8.09844C11.1572 8.33713 11.2521 8.56605 11.4208 8.73483C11.5896 8.90362 11.8185 8.99844 12.0572 8.99844C12.2959 8.99844 12.5249 8.90362 12.6936 8.73483C12.8624 8.56605 12.9572 8.33713 12.9572 8.09844ZM21.5984 11.9984C21.5984 9.45236 20.587 7.01056 18.7867 5.21021C16.9863 3.40986 14.5445 2.39844 11.9984 2.39844C9.45236 2.39844 7.01056 3.40986 5.21021 5.21021C3.40986 7.01056 2.39844 9.45236 2.39844 11.9984C2.39844 14.5445 3.40986 16.9863 5.21021 18.7867C7.01056 20.587 9.45236 21.5984 11.9984 21.5984C14.5445 21.5984 16.9863 20.587 18.7867 18.7867C20.587 16.9863 21.5984 14.5445 21.5984 11.9984ZM3.59844 11.9984C3.59844 10.8953 3.81571 9.80303 4.23785 8.7839C4.65999 7.76476 5.27873 6.83875 6.05874 6.05874C6.83875 5.27873 7.76476 4.65999 8.7839 4.23785C9.80303 3.81571 10.8953 3.59844 11.9984 3.59844C13.1015 3.59844 14.1938 3.81571 15.213 4.23785C16.2321 4.65999 17.1581 5.27873 17.9381 6.05874C18.7181 6.83875 19.3369 7.76476 19.759 8.7839C20.1812 9.80303 20.3984 10.8953 20.3984 11.9984C20.3984 14.2263 19.5134 16.3628 17.9381 17.9381C16.3628 19.5134 14.2263 20.3984 11.9984 20.3984C9.77062 20.3984 7.63405 19.5134 6.05874 17.9381C4.48343 16.3628 3.59844 14.2263 3.59844 11.9984Z" fill="#BFCBE0"/>
</svg>
