<svg width="18" height="18" viewBox="0 0 18 18" fill="none" xmlns="http://www.w3.org/2000/svg">
<path fill-rule="evenodd" clip-rule="evenodd" d="M8.12918 2.38049C8.52002 1.7065 9.47998 1.70651 9.87082 2.38049L17.0855 14.625C17.4822 15.3091 17.1322 16.125 16.3504 16.125H1.64958C0.867774 16.125 0.517842 15.3091 0.914542 14.625L8.12918 2.38049ZM10.1026 14.25C10.1026 14.8167 9.61394 15.375 9 15.375C8.26496 15.375 7.88754 14.756 7.88754 14.1893C7.88754 13.6225 8.38523 13.1631 8.99917 13.1631C9.61311 13.1631 10.1026 13.6833 10.1026 14.25ZM9 4.875C8.44187 4.875 8.05802 5.43325 8.05802 6V11.1107C8.05802 11.6775 8.44187 12.375 9 12.375C9.55813 12.375 9.90416 11.6775 9.90416 11.1107V6C9.90416 5.43325 9.55813 4.875 9 4.875Z" fill="#FFDE35"/>
</svg>
