<svg width="20" height="20" viewBox="0 0 20 20" fill="none" xmlns="http://www.w3.org/2000/svg">
<path fill-rule="evenodd" clip-rule="evenodd" d="M10.0013 18.3346C14.6037 18.3346 18.3346 14.6037 18.3346 10.0013C18.3346 5.39893 14.6037 1.66797 10.0013 1.66797C5.39893 1.66797 1.66797 5.39893 1.66797 10.0013C1.66797 14.6037 5.39893 18.3346 10.0013 18.3346ZM10.0013 4.04892C10.6588 4.04892 11.1918 4.58192 11.1918 5.2394V11.1918C11.1918 11.8493 10.6588 12.3823 10.0013 12.3823C9.34382 12.3823 8.81083 11.8493 8.81083 11.1918V5.2394C8.81083 4.58192 9.34382 4.04892 10.0013 4.04892ZM10.0013 15.9537C10.7246 15.9537 11.3109 15.4207 11.3109 14.7632C11.3109 14.1057 10.7246 13.5727 10.0013 13.5727C9.2781 13.5727 8.69181 14.1057 8.69181 14.7632C8.69181 15.4207 9.2781 15.9537 10.0013 15.9537Z" fill="#E75A5A"/>
</svg>
