<svg width="20" height="20" viewBox="0 0 24 24" fill="none" xmlns="http://www.w3.org/2000/svg">
<path fill-rule="evenodd" clip-rule="evenodd" d="M4.82373 17.7668L4 18.7023V7C4 5.89543 4.89543 5 6 5H18C19.1046 5 20 5.89543 20 7V14.4102C20 15.5148 19.1046 16.4102 18 16.4102H7.82578C6.67669 16.4102 5.58311 16.9044 4.82373 17.7668ZM6 3C3.79086 3 2 4.79086 2 7V21.3511C2 22.273 3.14132 22.7038 3.75051 22.012L6.32475 19.0885C6.70444 18.6573 7.25123 18.4102 7.82578 18.4102H18C20.2091 18.4102 22 16.6194 22 14.4102V7C22 4.79086 20.2091 3 18 3H6ZM8.90107 8.94384C9.17721 8.94384 9.40107 9.1677 9.40107 9.44384V10.7807C9.40107 11.0569 9.17721 11.2807 8.90107 11.2807H7.68716C7.41102 11.2807 7.18716 11.0569 7.18716 10.7807V9.44384C7.18716 9.1677 7.41102 8.94384 7.68716 8.94384H8.90107ZM11.3447 8.94384C11.0686 8.94384 10.8447 9.1677 10.8447 9.44384V10.7807C10.8447 11.0569 11.0686 11.2807 11.3447 11.2807H12.5586C12.8348 11.2807 13.0586 11.0569 13.0586 10.7807V9.44384C13.0586 9.1677 12.8348 8.94384 12.5586 8.94384H11.3447ZM16.2162 8.94384C16.4923 8.94384 16.7162 9.1677 16.7162 9.44384V10.7807C16.7162 11.0569 16.4923 11.2807 16.2162 11.2807H15.0023C14.7262 11.2807 14.5023 11.0569 14.5023 10.7807V9.44384C14.5023 9.1677 14.7262 8.94384 15.0023 8.94384H16.2162Z" fill="#ADBFDF"/>
</svg>
