<svg width="25" height="25" viewBox="0 0 25 25" fill="none" xmlns="http://www.w3.org/2000/svg">
<g id="progress/Size10">
<path id="vector" fill-rule="evenodd" clip-rule="evenodd" d="M18.5 5.875V6.375C18.5 7.47957 17.6046 8.375 16.5 8.375H8.5C7.39543 8.375 6.5 7.47957 6.5 6.375V5.875H6C5.17157 5.875 4.5 6.54657 4.5 7.375V19.375C4.5 20.2034 5.17157 20.875 6 20.875H19C19.8284 20.875 20.5 20.2034 20.5 19.375V7.375C20.5 6.54657 19.8284 5.875 19 5.875H18.5ZM12.0802 3.96714C11.7376 4.12582 11.5 4.47266 11.5 4.875C11.5 5.42728 11.9477 5.875 12.5 5.875C13.0523 5.875 13.5 5.42728 13.5 4.875C13.5 4.47266 13.2624 4.12582 12.9198 3.96714C12.7918 3.90791 12.6494 3.875 12.5 3.875C12.3506 3.875 12.2082 3.90791 12.0802 3.96714ZM6 3.875H9.67071C10.0825 2.70981 11.1938 1.875 12.5 1.875C13.8062 1.875 14.9175 2.70981 15.3293 3.875H19C20.933 3.875 22.5 5.442 22.5 7.375V19.375C22.5 21.308 20.933 22.875 19 22.875H6C4.067 22.875 2.5 21.308 2.5 19.375V7.375C2.5 5.442 4.067 3.875 6 3.875ZM12.5 14.375C13.7407 14.375 14.75 13.3657 14.75 12.125C14.75 10.8843 13.7407 9.875 12.5 9.875C11.2593 9.875 10.25 10.8843 10.25 12.125C10.25 13.3657 11.2593 14.375 12.5 14.375ZM12.5 15.2574C10.7009 15.2574 8 15.8456 8 17.3162V17.6103C8 18.5849 8.55323 19.375 9.5 19.375H15.5C16.4468 19.375 17 18.5849 17 17.6103V17.3162C17 15.8456 14.2991 15.2574 12.5 15.2574Z" fill="#BFCBE0"/>
</g>
</svg>
