<svg width="23" height="14" viewBox="0 0 23 14" fill="none" xmlns="http://www.w3.org/2000/svg">
<path fill-rule="evenodd" clip-rule="evenodd" d="M2.49375 0.460938C1.391 0.460938 0.5 1.35194 0.5 2.45331V9.30906C0.5 11.5091 2.28475 13.2938 4.48475 13.2938H14.0905C15.1905 13.2938 16.0842 12.4014 16.0842 11.3001V4.44706C16.0839 3.38999 15.6638 2.37631 14.9163 1.62885C14.1689 0.881384 13.1552 0.461302 12.0981 0.460938H2.49375ZM22.5 2.26081V11.4939C22.5 12.2419 21.6502 12.6764 21.0439 12.2351L18.2127 10.1753C17.9789 10.0053 17.7887 9.78236 17.6575 9.52475C17.5263 9.26714 17.4579 8.98215 17.4579 8.69306V5.06031C17.4579 4.47319 17.7384 3.92319 18.2141 3.57806L21.0439 1.51831C21.1807 1.41889 21.3425 1.35926 21.5111 1.34602C21.6798 1.33278 21.8488 1.36645 21.9995 1.4433C22.1502 1.52015 22.2767 1.63718 22.3651 1.78146C22.4534 1.92574 22.5001 2.09164 22.5 2.26081Z" fill="#BFCBE0"/>
</svg>
