<svg width="32" height="32" viewBox="0 0 32 32" fill="none" xmlns="http://www.w3.org/2000/svg">
<g opacity="0.7">
<g clip-path="url(#clip0_897_26590)">
<path d="M8.45653 8.45753C4.29309 12.621 4.29309 19.379 8.45653 23.5425C12.62 27.7059 19.378 27.7059 23.5415 23.5425C27.7049 19.379 27.7049 12.621 23.5415 8.45753C19.378 4.29408 12.62 4.29408 8.45653 8.45753ZM21.214 11.5392C21.4223 11.7475 21.4223 12.0852 21.214 12.2935L17.5075 16L21.214 19.7065C21.4223 19.9148 21.4223 20.2525 21.214 20.4608L20.4598 21.215C20.2515 21.4233 19.9138 21.4233 19.7055 21.215L15.999 17.5085L12.2925 21.215C12.0842 21.4233 11.7465 21.4233 11.5382 21.215L10.784 20.4608C10.5757 20.2525 10.5757 19.9148 10.784 19.7065L14.4905 16L10.784 12.2935C10.5757 12.0852 10.5757 11.7475 10.784 11.5392L11.5382 10.785C11.7465 10.5767 12.0842 10.5767 12.2925 10.785L15.999 14.4915L19.7055 10.785C19.9138 10.5767 20.2515 10.5767 20.4598 10.785L21.214 11.5392Z" fill="white"/>
</g>
</g>
<defs>
<clipPath id="clip0_897_26590">
<rect width="25.6" height="25.6" fill="white" transform="translate(3.19922 3.20001)"/>
</clipPath>
</defs>
</svg>
