<svg width="25" height="24" viewBox="0 0 25 24" fill="none" xmlns="http://www.w3.org/2000/svg">
<path d="M16.03 9.53061C16.1707 9.38996 16.25 9.19891 16.25 9C16.25 8.80109 16.171 8.61032 16.0303 8.46967L16.0239 8.46327C15.8838 8.3268 15.6956 8.25 15.5 8.25C15.3011 8.25 15.1103 8.32902 14.9697 8.46967L12.5 10.9393L10.0303 8.46967C9.88968 8.32902 9.69891 8.25 9.5 8.25C9.30109 8.25 9.11032 8.32902 8.96967 8.46967C8.82902 8.61032 8.75 8.80109 8.75 9C8.75 9.19891 8.82902 9.38968 8.96967 9.53033L11.4393 12L8.96995 14.4694C8.8293 14.61 8.75 14.8011 8.75 15C8.75 15.0015 8.75 15.003 8.75001 15.0045C8.75008 15.015 8.75036 15.0255 8.75087 15.036C8.75982 15.2223 8.83783 15.3985 8.96967 15.5303C9.11032 15.671 9.30109 15.75 9.5 15.75C9.69891 15.75 9.88968 15.671 10.0303 15.5303L12.5 13.0607L14.9697 15.5303C15.1103 15.671 15.3011 15.75 15.5 15.75C15.6989 15.75 15.8897 15.671 16.0303 15.5303C16.171 15.3897 16.25 15.1989 16.25 15C16.25 14.8011 16.171 14.6103 16.0303 14.4697L13.5607 12L16.03 9.53061Z" fill="#002CFB"/>
<path fill-rule="evenodd" clip-rule="evenodd" d="M12.5 2.25C12.5 2.25 14.4831 2.25 16.2954 3.01651C16.2954 3.01651 18.0452 3.75663 19.3943 5.10571C19.3943 5.10571 20.7434 6.45478 21.4835 8.20463C21.4835 8.20463 22.25 10.0169 22.25 12C22.25 12 22.25 13.9831 21.4835 15.7954C21.4835 15.7954 20.7434 17.5452 19.3943 18.8943C19.3943 18.8943 18.0452 20.2434 16.2954 20.9835C16.2954 20.9835 14.4831 21.75 12.5 21.75C12.5 21.75 10.5169 21.75 8.70463 20.9835C8.70463 20.9835 6.95478 20.2434 5.60571 18.8943C5.60571 18.8943 4.25663 17.5452 3.51651 15.7954C3.51651 15.7954 2.75 13.9831 2.75 12C2.75 12 2.75 10.0169 3.51651 8.20463C3.51651 8.20463 4.25663 6.45478 5.60571 5.10571C5.60571 5.10571 6.95478 3.75663 8.70463 3.01651C8.70463 3.01651 10.5169 2.25 12.5 2.25ZM12.5 3.75C12.5 3.75 10.821 3.75 9.28896 4.39802C9.28896 4.39802 7.80857 5.02417 6.66637 6.16637C6.66637 6.16637 5.52417 7.30857 4.89802 8.78896C4.89802 8.78896 4.25 10.321 4.25 12C4.25 12 4.25 13.679 4.89802 15.211C4.89802 15.211 5.52417 16.6914 6.66637 17.8336C6.66637 17.8336 7.80857 18.9758 9.28896 19.602C9.28896 19.602 10.821 20.25 12.5 20.25C12.5 20.25 14.179 20.25 15.711 19.602C15.711 19.602 17.1914 18.9758 18.3336 17.8336C18.3336 17.8336 19.4758 16.6914 20.102 15.211C20.102 15.211 20.75 13.6789 20.75 12C20.75 12 20.75 10.3211 20.102 8.78896C20.102 8.78896 19.4758 7.30857 18.3336 6.16637C18.3336 6.16637 17.1914 5.02417 15.711 4.39802C15.711 4.39802 14.179 3.75 12.5 3.75Z" fill="#002CFB"/>
</svg>
