<svg width="24" height="25" viewBox="0 0 24 25" fill="none" xmlns="http://www.w3.org/2000/svg">
<g id="iconUpdate">
<path id="Union" fill-rule="evenodd" clip-rule="evenodd" d="M14.5039 3.80669C12.1983 3.1889 9.74168 3.51232 7.67452 4.70579C5.60736 5.89927 4.09898 7.86504 3.48119 10.1707L1.50476 9.64107C1.16217 9.54927 0.878441 9.9157 1.05308 10.2244L3.16699 13.961C3.27635 14.1543 3.52224 14.2215 3.71471 14.1107L7.47245 11.9474C7.78149 11.7695 7.72085 11.3067 7.3764 11.2144L5.41304 10.6883C5.89354 8.89503 7.06673 7.3661 8.67452 6.43784C10.2823 5.50959 12.193 5.25804 13.9863 5.73854C15.6503 6.18443 17.0868 7.22682 18.0269 8.65947C18.1481 8.84417 18.3918 8.91048 18.5831 8.80002L19.6223 8.20002C19.8137 8.08957 19.8799 7.84435 19.7611 7.65812C18.5541 5.76675 16.6804 4.38989 14.5039 3.80669ZM9.50882 21.1948C11.8144 21.8126 14.271 21.4892 16.3382 20.2957C18.4054 19.1022 19.9137 17.1364 20.5315 14.8308L22.508 15.3604C22.8505 15.4522 23.1343 15.0858 22.9596 14.7771L20.8457 11.0405C20.7364 10.8472 20.4905 10.7799 20.298 10.8908L16.5403 13.0541C16.2312 13.232 16.2919 13.6948 16.6363 13.7871L18.5997 14.3132C18.1192 16.1064 16.946 17.6354 15.3382 18.5636C13.7304 19.4919 11.8197 19.7434 10.0265 19.2629C8.36237 18.817 6.9259 17.7747 5.98582 16.342C5.86462 16.1573 5.62093 16.091 5.42961 16.2015L4.39038 16.8015C4.19906 16.9119 4.13278 17.1571 4.25162 17.3434C5.45863 19.2347 7.3323 20.6116 9.50882 21.1948Z" fill="#002CFB"/>
</g>
</svg>
