<svg width="24" height="24" viewBox="0 0 24 24" fill="none" xmlns="http://www.w3.org/2000/svg">
<path fill-rule="evenodd" clip-rule="evenodd" d="M7.04762 4.38095C7.04762 4.17056 7.21818 4 7.42857 4H8.19048C8.40087 4 8.57143 4.17056 8.57143 4.38095V5.52381H14.6667V4.38095C14.6667 4.17056 14.8372 4 15.0476 4H15.8095C16.0199 4 16.1905 4.17056 16.1905 4.38095V5.52381H16.5714C18.0442 5.52381 19.2381 6.71772 19.2381 8.19048V12.381H17.7143V9.33333H5.52381V16.5714C5.52381 17.2026 6.03548 17.7143 6.66667 17.7143H11.619V19.2381H6.66667C5.19391 19.2381 4 18.0442 4 16.5714V8.19048C4 6.71773 5.19391 5.52381 6.66667 5.52381H7.04762V4.38095Z" fill="#002CFB"/>
<path fill-rule="evenodd" clip-rule="evenodd" d="M15.8092 15.8095V13.5238C15.8092 13.3134 15.9798 13.1429 16.1902 13.1429H16.9521C17.1625 13.1429 17.3331 13.3134 17.3331 13.5238V15.8095H19.6188C19.8292 15.8095 19.9997 15.9801 19.9997 16.1905V16.9524C19.9997 17.1628 19.8292 17.3333 19.6188 17.3333H17.3331V19.619C17.3331 19.8294 17.1625 20 16.9521 20H16.1902C15.9798 20 15.8092 19.8294 15.8092 19.619V17.3333H13.5235C13.3131 17.3333 13.1426 17.1628 13.1426 16.9524V16.1905C13.1426 15.9801 13.3131 15.8095 13.5235 15.8095H15.8092Z" fill="#002CFB"/>
</svg>
