<svg width="24" height="24" viewBox="0 0 24 24" fill="none" xmlns="http://www.w3.org/2000/svg">
<g id="Size=M">
<path id="Vector" d="M21.5 11.4072L12.5172 19.8791C11.4168 20.9169 9.92424 21.5 8.36796 21.5C6.81168 21.5 5.31914 20.9169 4.21869 19.8791C3.11823 18.8412 2.5 17.4335 2.5 15.9658C2.5 14.498 3.11823 13.0904 4.21869 12.0525L13.2014 3.58062C13.9351 2.88871 14.9301 2.5 15.9676 2.5C17.0052 2.5 18.0002 2.88871 18.7338 3.58062C19.4675 4.27254 19.8796 5.21097 19.8796 6.18948C19.8796 7.16799 19.4675 8.10643 18.7338 8.79834L9.74128 17.2702C9.37446 17.6162 8.87695 17.8105 8.35819 17.8105C7.83943 17.8105 7.34191 17.6162 6.97509 17.2702C6.60828 16.9243 6.4022 16.455 6.4022 15.9658C6.4022 15.4765 6.60828 15.0073 6.97509 14.6614L15.2736 6.844" stroke="#ADBFDF" stroke-width="1.8" stroke-linecap="round" stroke-linejoin="round"/>
</g>
</svg>
