<svg width="20" height="20" viewBox="0 0 20 20" fill="none" xmlns="http://www.w3.org/2000/svg">
<path fill-rule="evenodd" clip-rule="evenodd" d="M16.6654 6.6665V17.4998C16.6654 17.9601 16.2923 18.3332 15.832 18.3332H11.6654V16.6665H14.9987V8.33317H10.832C10.3718 8.33317 9.9987 7.96007 9.9987 7.49984V3.33317H4.9987V9.99984H3.33203V2.49984C3.33203 2.0396 3.70513 1.6665 4.16536 1.6665H11.6654C11.8864 1.6665 12.0983 1.7543 12.2546 1.91058L16.4213 6.07725C16.5776 6.23353 16.6654 6.44549 16.6654 6.6665ZM11.6654 3.67835V6.6665H14.6535L11.6654 3.67835Z" fill="#002CFB"/>
<path d="M3.33203 17.4998V13.3332H4.9987V16.6665H8.33203V18.3332H4.16536C3.70513 18.3332 3.33203 17.9601 3.33203 17.4998Z" fill="#002CFB"/>
</svg>
