<svg width="18" height="18" viewBox="0 0 18 18" fill="none" xmlns="http://www.w3.org/2000/svg">
<path d="M3.75 1.5C3.33579 1.5 3 1.83579 3 2.25V15.75C3 16.1642 3.33579 16.5 3.75 16.5H9.75V15H4.5V3H13.5V11.25H15V2.25C15 1.83579 14.6642 1.5 14.25 1.5H3.75Z" fill="#BFCBE0"/>
<path d="M12 12.75C11.5858 12.75 11.25 13.0858 11.25 13.5V16.5H12C12.4142 16.5 12.75 16.1642 12.75 15.75V14.25H14.25C14.6642 14.25 15 13.9142 15 13.5V12.75H12Z" fill="#BFCBE0"/>
<path d="M9 5.25C9.114 5.25 9.21706 5.31783 9.26215 5.42253L9.96685 7.05892L11.7409 7.22346C11.8544 7.23399 11.9508 7.31105 11.986 7.41947C12.0212 7.52789 11.9886 7.64687 11.9029 7.72211L10.5644 8.89799L10.9561 10.6361C10.9812 10.7473 10.9377 10.8627 10.8455 10.9297C10.7532 10.9968 10.63 11.0025 10.532 10.9443L9 10.0346L7.46804 10.9443C7.37002 11.0025 7.24676 10.9968 7.15454 10.9297C7.06231 10.8627 7.0188 10.7473 7.04387 10.6361L7.4356 8.89799L6.09706 7.72211C6.01142 7.64687 5.97875 7.52789 6.01398 7.41947C6.04921 7.31105 6.14557 7.23399 6.25908 7.22346L8.03314 7.05892L8.73785 5.42253C8.78294 5.31783 8.886 5.25 9 5.25Z" fill="#BFCBE0"/>
</svg>
