<svg width="22" height="22" viewBox="0 0 22 22" fill="none" xmlns="http://www.w3.org/2000/svg">
<path d="M17.4167 4.84143H16.5V5.7581V15.5833C16.5 17.102 15.2688 18.3333 13.75 18.3333H8.25C6.73122 18.3333 5.5 17.102 5.5 15.5833V5.7581V4.84143H4.58333H3.66667V4.58325H8.25H9.16667V3.66659L9.16667 2.74992L12.8333 2.74992V3.66659V4.58325H13.75H18.3333V4.84143H17.4167Z" stroke="#BFCBE0" stroke-width="1.83333"/>
<path fill-rule="evenodd" clip-rule="evenodd" d="M8.70833 15.5833C8.4552 15.5833 8.25 15.3781 8.25 15.125V8.70833C8.25 8.4552 8.4552 8.25 8.70833 8.25H9.625C9.87813 8.25 10.0833 8.4552 10.0833 8.70833V15.125C10.0833 15.3781 9.87813 15.5833 9.625 15.5833H8.70833Z" fill="#BFCBE0"/>
<path fill-rule="evenodd" clip-rule="evenodd" d="M12.3763 15.5833C12.1232 15.5833 11.918 15.3781 11.918 15.125V8.70833C11.918 8.4552 12.1232 8.25 12.3763 8.25H13.293C13.5461 8.25 13.7513 8.4552 13.7513 8.70833V15.125C13.7513 15.3781 13.5461 15.5833 13.293 15.5833H12.3763Z" fill="#BFCBE0"/>
</svg>
