<svg width="16" height="16" viewBox="0 0 16 16" fill="none" xmlns="http://www.w3.org/2000/svg">
<path fill-rule="evenodd" clip-rule="evenodd" d="M3.21842 11.8445L2.66927 12.4682V4.66667C2.66927 3.93029 3.26623 3.33333 4.0026 3.33333H12.0026C12.739 3.33333 13.3359 3.93029 13.3359 4.66667V9.60683C13.3359 10.3432 12.739 10.9402 12.0026 10.9402H5.21979C4.45373 10.9402 3.72467 11.2696 3.21842 11.8445ZM4.0026 2C2.52984 2 1.33594 3.19391 1.33594 4.66667V14.2341C1.33594 14.8486 2.09682 15.1359 2.50295 14.6747L4.21911 12.7257C4.47223 12.4382 4.83676 12.2735 5.21979 12.2735H12.0026C13.4754 12.2735 14.6693 11.0796 14.6693 9.60683V4.66667C14.6693 3.19391 13.4754 2 12.0026 2H4.0026ZM5.93687 5.96224C6.12097 5.96224 6.27021 6.11148 6.27021 6.29557V7.18684C6.27021 7.37093 6.12097 7.52017 5.93687 7.52017H5.1276C4.94351 7.52017 4.79427 7.37093 4.79427 7.18684V6.29557C4.79427 6.11148 4.94351 5.96224 5.1276 5.96224H5.93687ZM7.56598 5.96224C7.38189 5.96224 7.23265 6.11148 7.23265 6.29557V7.18684C7.23265 7.37093 7.38189 7.52017 7.56598 7.52017H8.37525C8.55935 7.52017 8.70858 7.37093 8.70858 7.18684V6.29557C8.70858 6.11148 8.55935 5.96224 8.37525 5.96224H7.56598ZM10.8136 5.96224C10.9977 5.96224 11.147 6.11148 11.147 6.29557V7.18684C11.147 7.37093 10.9977 7.52017 10.8136 7.52017H10.0044C9.82026 7.52017 9.67103 7.37093 9.67103 7.18684V6.29557C9.67103 6.11148 9.82026 5.96224 10.0044 5.96224H10.8136Z" fill="#ADBFDF"/>
</svg>
