<svg width="16" height="16" viewBox="0 0 16 16" fill="none" xmlns="http://www.w3.org/2000/svg">
<path fill-rule="evenodd" clip-rule="evenodd" d="M7.2 8.6C7.31046 8.6 7.4 8.68954 7.4 8.8L7.4 12.6C7.4 12.8209 7.57909 13 7.8 13H8.2C8.42091 13 8.6 12.8209 8.6 12.6V8.8C8.6 8.68954 8.68954 8.6 8.8 8.6H12.6C12.8209 8.6 13 8.42091 13 8.2V7.8C13 7.57909 12.8209 7.4 12.6 7.4H8.8C8.68954 7.4 8.6 7.31046 8.6 7.2V3.4C8.6 3.17909 8.42091 3 8.2 3H7.8C7.57909 3 7.4 3.17909 7.4 3.4L7.4 7.2C7.4 7.31046 7.31046 7.4 7.2 7.4H3.4C3.17909 7.4 3 7.57909 3 7.8V8.2C3 8.42091 3.17909 8.6 3.4 8.6H7.2Z" fill="#002CFB"/>
</svg>
