<svg width="18" height="18" viewBox="0 0 18 18" fill="none" xmlns="http://www.w3.org/2000/svg">
<g id="iconChatMessage">
<path id="Union" fill-rule="evenodd" clip-rule="evenodd" d="M3.6178 13.3251L3 14.0267V5.25C3 4.42157 3.67157 3.75 4.5 3.75H13.5C14.3284 3.75 15 4.42157 15 5.25V10.8077C15 11.6361 14.3284 12.3077 13.5 12.3077H5.86933C5.00752 12.3077 4.18733 12.6783 3.6178 13.3251ZM4.5 2.25C2.84315 2.25 1.5 3.59315 1.5 5.25V16.0134C1.5 16.7047 2.35599 17.0279 2.81288 16.509L4.74356 14.3164C5.02833 13.993 5.43843 13.8077 5.86933 13.8077H13.5C15.1569 13.8077 16.5 12.4645 16.5 10.8077V5.25C16.5 3.59315 15.1569 2.25 13.5 2.25H4.5ZM6.67578 6.70752C6.88288 6.70752 7.05078 6.87541 7.05078 7.08252V8.08519C7.05078 8.2923 6.88288 8.46019 6.67578 8.46019H5.76535C5.55824 8.46019 5.39035 8.2923 5.39035 8.08519V7.08252C5.39035 6.87541 5.55824 6.70752 5.76535 6.70752H6.67578ZM8.50853 6.70752C8.30142 6.70752 8.13353 6.87541 8.13353 7.08252V8.08519C8.13353 8.2923 8.30142 8.46019 8.50853 8.46019H9.41895C9.62606 8.46019 9.79395 8.2923 9.79395 8.08519V7.08252C9.79395 6.87541 9.62606 6.70752 9.41895 6.70752H8.50853ZM12.1621 6.70752C12.3692 6.70752 12.5371 6.87541 12.5371 7.08252V8.08519C12.5371 8.2923 12.3692 8.46019 12.1621 8.46019H11.2517C11.0446 8.46019 10.8767 8.2923 10.8767 8.08519V7.08252C10.8767 6.87541 11.0446 6.70752 11.2517 6.70752H12.1621Z" fill="#ADBFDF"/>
</g>
</svg>
