<svg xmlns="http://www.w3.org/2000/svg" width="16" height="17" viewBox="0 0 16 17" fill="none">
<path d="M13.9333 11.0039C13.0221 11.0039 12.1407 10.8557 11.3184 10.5891C11.0592 10.5002 10.7703 10.5668 10.5703 10.7668L9.40733 12.2261C7.31103 11.2261 5.34807 9.3372 4.30362 7.16683L5.74807 5.9372C5.94807 5.72979 6.00733 5.4409 5.92584 5.18164C5.65177 4.35942 5.51103 3.47794 5.51103 2.56683C5.51103 2.16683 5.1777 1.8335 4.7777 1.8335H2.21473C1.81473 1.8335 1.33325 2.01127 1.33325 2.56683C1.33325 9.44831 7.05918 15.1668 13.9333 15.1668C14.4592 15.1668 14.6666 14.7002 14.6666 14.2928V11.7372C14.6666 11.3372 14.3333 11.0039 13.9333 11.0039Z" fill="#E75A5A"/>
<path d="M14.6666 2.37064L14.1294 1.8335L11.9999 3.96302L9.87039 1.8335L9.33325 2.37064L11.4628 4.50016L9.33325 6.62969L9.87039 7.16683L11.9999 5.03731L14.1294 7.16683L14.6666 6.62969L12.5371 4.50016L14.6666 2.37064Z" fill="#E75A5A"/>
</svg>