<svg width="14" height="8" viewBox="0 0 14 8" fill="none" xmlns="http://www.w3.org/2000/svg">
<path fill-rule="evenodd" clip-rule="evenodd" d="M1.26875 0.0625C0.567 0.0625 0 0.609269 0 1.28514V5.49222C0 6.84227 1.13575 7.9375 2.53575 7.9375H8.6485C9.3485 7.9375 9.91725 7.38989 9.91725 6.71402V2.50862C9.91702 1.85994 9.64969 1.23789 9.17403 0.779198C8.69837 0.320511 8.05331 0.0627236 7.38063 0.0625H1.26875ZM14 1.16701V6.83299C14 7.29201 13.4593 7.55864 13.0734 7.28779L11.2717 6.02381C11.123 5.91947 11.0019 5.78267 10.9184 5.62458C10.8349 5.4665 10.7914 5.29162 10.7914 5.11421V2.88494C10.7914 2.52465 10.9699 2.18714 11.2726 1.97535L13.0734 0.711367C13.1605 0.650355 13.2634 0.613764 13.3707 0.60564C13.478 0.597515 13.5856 0.618175 13.6815 0.665334C13.7774 0.712493 13.8579 0.784313 13.9141 0.872851C13.9703 0.961389 14.0001 1.06319 14 1.16701Z" fill="#002CFB"/>
</svg>
