<svg width="21" height="16" viewBox="0 0 21 16" fill="none" xmlns="http://www.w3.org/2000/svg">
<path fill-rule="evenodd" clip-rule="evenodd" d="M7.1518 4.37425L5.3882 2.61065C5.27104 2.49349 5.27104 2.30354 5.3882 2.18639L5.81247 1.76212C5.92962 1.64496 6.11957 1.64497 6.23673 1.76212L9.23672 4.76212C9.35388 4.87928 9.35388 5.06923 9.23672 5.18639L6.23673 8.18638C6.11957 8.30354 5.92962 8.30354 5.81247 8.18639L5.3882 7.76212C5.27105 7.64496 5.27105 7.45502 5.3882 7.33786L7.1518 5.57425L1.40035 5.57425C1.23467 5.57425 1.10035 5.43994 1.10035 5.27425L1.10035 4.67425C1.10035 4.50857 1.23467 4.37426 1.40035 4.37425L7.1518 4.37425Z" fill="#002CFB"/>
<path fill-rule="evenodd" clip-rule="evenodd" d="M10.1635 12.0712L10.1635 12.0714V12.9286C10.1635 13.402 10.5473 13.7857 11.0206 13.7857H17.8778C18.3512 13.7857 18.7349 13.402 18.7349 12.9286V12.0714L18.7349 12.0712C18.7355 12.0622 18.7556 11.7458 17.8046 11.3514C16.9149 10.9824 15.656 10.7857 14.4492 10.7857C13.2425 10.7857 11.9836 10.9824 11.0939 11.3514C10.1428 11.7458 10.1629 12.0622 10.1635 12.0712ZM14.4492 5.64286C15.3931 5.64286 16.1635 4.87241 16.1635 3.92857C16.1635 2.98473 15.3931 2.21429 14.4492 2.21429C13.5054 2.21429 12.7349 2.98473 12.7349 3.92857C12.7349 4.87241 13.5054 5.64286 14.4492 5.64286ZM8.44922 12.0714C8.44922 9.92857 11.7505 9.07143 14.4492 9.07143C17.1479 9.07143 20.4492 9.92857 20.4492 12.0714V12.9286C20.4492 14.3487 19.298 15.5 17.8778 15.5H11.0206C9.60049 15.5 8.44922 14.3487 8.44922 12.9286V12.0714ZM17.8778 3.92857C17.8778 5.81918 16.3398 7.35714 14.4492 7.35714C12.5586 7.35714 11.0206 5.81918 11.0206 3.92857C11.0206 2.03796 12.5586 0.5 14.4492 0.5C16.3398 0.5 17.8778 2.03796 17.8778 3.92857Z" fill="#002CFB"/>
</svg>
