<svg width="20" height="20" viewBox="0 0 20 20" fill="none" xmlns="http://www.w3.org/2000/svg">
<rect width="20" height="20" rx="3.33333" fill="#2EA96E"/>
<g clip-path="url(#clip0_1493_28426)">
<path fill-rule="evenodd" clip-rule="evenodd" d="M10.1487 5.473C10.059 5.53274 9.99988 5.63479 9.99988 5.75065C9.99988 5.93475 10.1491 6.08398 10.3332 6.08398C10.5173 6.08398 10.6665 5.93475 10.6665 5.75065C10.6665 5.63479 10.6074 5.53274 10.5177 5.473C10.4646 5.43777 10.401 5.41732 10.3332 5.41732C10.2655 5.41732 10.2018 5.43777 10.1487 5.473ZM6.99988 6.66732H6.58321C6.169 6.66732 5.83321 7.0031 5.83321 7.41732V14.084C5.83321 14.4982 6.169 14.834 6.58321 14.834H14.0832C14.4974 14.834 14.8332 14.4982 14.8332 14.084V7.41732C14.8332 7.0031 14.4974 6.66732 14.0832 6.66732H13.6665V6.75065C13.6665 7.34896 13.1815 7.83398 12.5832 7.83398H8.08321C7.4849 7.83398 6.99988 7.34895 6.99988 6.75065V6.66732ZM10.3332 4.08398C11.1098 4.08398 11.7624 4.61514 11.9474 5.33398H14.0832C15.2338 5.33398 16.1665 6.26672 16.1665 7.41732V14.084C16.1665 15.2346 15.2338 16.1673 14.0832 16.1673H6.58321C5.43262 16.1673 4.49988 15.2346 4.49988 14.084V7.41732C4.49988 6.26672 5.43262 5.33398 6.58321 5.33398H8.71905C8.90407 4.61514 9.55661 4.08398 10.3332 4.08398ZM10.3332 11.334C11.0225 11.334 11.5832 10.7733 11.5832 10.084C11.5832 9.3947 11.0225 8.83398 10.3332 8.83398C9.64393 8.83398 9.08321 9.3947 9.08321 10.084C9.08321 10.7733 9.64393 11.334 10.3332 11.334ZM10.3332 11.6668C9.33368 11.6668 7.83321 11.9764 7.83321 12.7504V12.9052C7.83321 13.4181 8.14056 13.834 8.66654 13.834H11.9999C12.5259 13.834 12.8332 13.4181 12.8332 12.9052V12.7504C12.8332 11.9764 11.3327 11.6668 10.3332 11.6668Z" fill="white"/>
</g>
<defs>
<clipPath id="clip0_1493_28426">
<rect width="13.3333" height="13.3333" fill="white" transform="translate(3.33331 3.3335)"/>
</clipPath>
</defs>
</svg>
