<svg width="24" height="24" viewBox="0 0 24 24" fill="none" xmlns="http://www.w3.org/2000/svg">
<rect width="24" height="24" rx="4" fill="#F8FAFD"/>
<path fill-rule="evenodd" clip-rule="evenodd" d="M6.26875 8C5.567 8 5 8.55545 5 9.24204V13.5159C5 14.8874 6.13575 16 7.53575 16H13.6485C14.3485 16 14.9172 15.4437 14.9172 14.7571V10.4849C14.917 9.82597 14.6497 9.19404 14.174 8.72807C13.6984 8.26211 13.0533 8.00023 12.3806 8H6.26875ZM19 9.12204V14.878C19 15.3443 18.4593 15.6151 18.0734 15.34L16.2717 14.0559C16.123 13.9499 16.0019 13.811 15.9184 13.6504C15.8349 13.4898 15.7914 13.3121 15.7914 13.1319V10.8672C15.7914 10.5012 15.9699 10.1584 16.2726 9.94321L18.0734 8.65917C18.1605 8.59719 18.2634 8.56001 18.3707 8.55176C18.478 8.54351 18.5856 8.5645 18.6815 8.6124C18.7774 8.66031 18.8579 8.73327 18.9141 8.82321C18.9703 8.91316 19.0001 9.01658 19 9.12204Z" fill="#71869D"/>
</svg>
