<svg width="22" height="22" viewBox="0 0 22 22" fill="none" xmlns="http://www.w3.org/2000/svg">
<g opacity="0.6" clip-path="url(#clip0_1164_22862)">
<path d="M11 1.83203C12.423 1.83198 13.7907 2.38347 14.8156 3.37062C15.8405 4.35778 16.443 5.70377 16.4963 7.12578L16.5 7.33203H17.4167C17.8792 7.33188 18.3247 7.50657 18.6638 7.82107C19.003 8.13557 19.2107 8.56664 19.2454 9.02786L19.25 9.16536V18.332C19.2501 18.7946 19.0755 19.24 18.761 19.5792C18.4465 19.9183 18.0154 20.1261 17.5542 20.1608L17.4167 20.1654H4.58333C4.12081 20.1655 3.67531 19.9908 3.33616 19.6763C2.99701 19.3618 2.78927 18.9308 2.75458 18.4695L2.75 18.332V9.16536C2.74985 8.70284 2.92454 8.25734 3.23904 7.9182C3.55354 7.57905 3.98461 7.3713 4.44583 7.33661L4.58333 7.33203H5.5C5.5 5.87334 6.07946 4.47439 7.11091 3.44294C8.14236 2.41149 9.54131 1.83203 11 1.83203ZM17.4167 9.16536H4.58333V18.332H17.4167V9.16536ZM11 10.9987C11.391 10.9988 11.7718 11.124 12.0867 11.3559C12.4015 11.5878 12.634 11.9143 12.7501 12.2877C12.8662 12.6611 12.8599 13.0618 12.732 13.4314C12.6042 13.8009 12.3615 14.1199 12.0395 14.3418L11.9167 14.4197V15.582C11.9164 15.8157 11.8269 16.0404 11.6666 16.2103C11.5062 16.3802 11.287 16.4824 11.0537 16.4961C10.8205 16.5098 10.5908 16.4339 10.4117 16.284C10.2325 16.134 10.1173 15.9213 10.0898 15.6893L10.0833 15.582V14.4197C9.73385 14.2179 9.46071 13.9064 9.30628 13.5336C9.15186 13.1607 9.12477 12.7473 9.22922 12.3575C9.33367 11.9677 9.56382 11.6233 9.88399 11.3776C10.2042 11.1319 10.5964 10.9987 11 10.9987ZM11 3.66536C10.0275 3.66536 9.09491 4.05167 8.40728 4.73931C7.71964 5.42694 7.33333 6.35957 7.33333 7.33203H14.6667C14.6667 6.35957 14.2804 5.42694 13.5927 4.73931C12.9051 4.05167 11.9725 3.66536 11 3.66536Z" fill="#B5C0CD"/>
</g>
<defs>
<clipPath id="clip0_1164_22862">
<rect width="22" height="22" fill="white"/>
</clipPath>
</defs>
</svg>
