<svg width="20" height="20" viewBox="0 0 20 20" fill="none" xmlns="http://www.w3.org/2000/svg">
<path d="M18.4664 10.8904C18.3461 10.7699 18.1953 10.6844 18.0302 10.6432C17.865 10.6019 17.6917 10.6063 17.5289 10.6561C16.3915 10.9994 15.1822 11.0279 14.03 10.7383C12.8777 10.4487 11.8255 9.85202 10.9856 9.01174C10.1456 8.17146 9.54931 7.11908 9.26018 5.96669C8.97106 4.8143 8.99994 3.60506 9.34374 2.46778C9.3939 2.30489 9.3987 2.13142 9.35763 1.966C9.31657 1.80059 9.23118 1.6495 9.11067 1.52898C8.99015 1.40847 8.83906 1.32308 8.67365 1.28202C8.50823 1.24095 8.33475 1.24575 8.17187 1.29591C6.46124 1.82169 4.96006 2.87369 3.88202 4.30216C2.93929 5.5552 2.36439 7.04616 2.22183 8.60774C2.07928 10.1693 2.3747 11.7397 3.07496 13.1428C3.77522 14.5458 4.8526 15.7259 6.18622 16.5507C7.51983 17.3756 9.05692 17.8124 10.625 17.8123C12.4557 17.8177 14.2377 17.2224 15.6976 16.1178C17.1254 15.0387 18.1763 13.5367 18.7008 11.8256C18.7501 11.6631 18.7543 11.4903 18.713 11.3256C18.6717 11.1609 18.5865 11.0105 18.4664 10.8904ZM14.5695 14.6201C13.3059 15.5714 11.7411 16.0343 10.1633 15.9236C8.58542 15.8129 7.10065 15.136 5.98221 14.0176C4.86376 12.8992 4.1869 11.4144 4.07619 9.83654C3.96548 8.2587 4.42837 6.69395 5.37968 5.43028C5.88025 4.76815 6.50062 4.20581 7.20858 3.77247C7.19452 3.97247 7.18749 4.17325 7.18749 4.37481C7.18997 6.61182 8.07972 8.75649 9.66152 10.3383C11.2433 11.9201 13.388 12.8098 15.625 12.8123C15.8266 12.8123 16.0273 12.8053 16.2273 12.7912C15.7942 13.4993 15.2318 14.1197 14.5695 14.6201Z" fill="white" fill-opacity="0.56"/>
</svg>
