<svg width="13" height="16" viewBox="0 0 13 16" fill="none" xmlns="http://www.w3.org/2000/svg">
<path fill-rule="evenodd" clip-rule="evenodd" d="M0.200195 2.94464C0.200195 1.70837 1.20837 0.700195 2.44464 0.700195H7.5002C7.94202 0.700195 8.3002 1.05837 8.3002 1.5002C8.3002 1.94202 7.94202 2.3002 7.5002 2.3002H2.44464C2.09202 2.3002 1.8002 2.59202 1.8002 2.94464V13.0558C1.8002 13.4084 2.09202 13.7002 2.44464 13.7002H7.5002C7.94202 13.7002 8.3002 14.0584 8.3002 14.5002C8.3002 14.942 7.94202 15.3002 7.5002 15.3002H2.44464C1.20837 15.3002 0.200195 14.292 0.200195 13.0558V2.94464ZM8.93451 4.93451C9.24693 4.62209 9.75346 4.62209 10.0659 4.93451L12.5659 7.43451C12.8783 7.74693 12.8783 8.25346 12.5659 8.56588L10.0659 11.0659C9.75346 11.3783 9.24693 11.3783 8.93451 11.0659C8.62209 10.7535 8.62209 10.2469 8.93451 9.93451L10.0688 8.8002H4.33353C3.8917 8.8002 3.53353 8.44202 3.53353 8.0002C3.53353 7.55837 3.8917 7.2002 4.33353 7.2002H10.0688L8.93451 6.06588C8.62209 5.75346 8.62209 5.24693 8.93451 4.93451Z" fill="#002CFB"/>
</svg>
