<svg width="20" height="20" viewBox="0 0 20 20" fill="none" xmlns="http://www.w3.org/2000/svg">
<path d="M18.466 10.8909C18.3458 10.7704 18.195 10.6849 18.0298 10.6436C17.8646 10.6024 17.6913 10.6068 17.5285 10.6566C16.3911 10.9999 15.1819 11.0283 14.0296 10.7388C12.8773 10.4492 11.8252 9.85251 10.9852 9.01223C10.1452 8.17195 9.54894 7.11957 9.25982 5.96717C8.97069 4.81478 8.99957 3.60555 9.34337 2.46827C9.39353 2.30538 9.39833 2.1319 9.35727 1.96649C9.3162 1.80108 9.23082 1.64999 9.1103 1.52947C8.98978 1.40895 8.8387 1.32357 8.67328 1.2825C8.50787 1.24144 8.33439 1.24624 8.1715 1.2964C6.46087 1.82217 4.95969 2.87417 3.88166 4.30265C2.93892 5.55569 2.36403 7.04665 2.22147 8.60823C2.07891 10.1698 2.37434 11.7402 3.07459 13.1433C3.77485 14.5463 4.85223 15.7264 6.18585 16.5512C7.51947 17.3761 9.05655 17.8129 10.6246 17.8128C12.4554 17.8182 14.2373 17.2229 15.6973 16.1183C17.125 15.0392 18.1759 13.5372 18.7004 11.8261C18.7497 11.6636 18.7539 11.4908 18.7126 11.3261C18.6714 11.1614 18.5861 11.011 18.466 10.8909ZM14.5692 14.6206C13.3055 15.5719 11.7407 16.0348 10.1629 15.9241C8.58506 15.8134 7.10029 15.1365 5.98184 14.0181C4.86339 12.8996 4.18653 11.4149 4.07582 9.83703C3.96511 8.25918 4.42801 6.69444 5.37931 5.43077C5.87988 4.76863 6.50025 4.2063 7.20822 3.77296C7.19416 3.97296 7.18712 4.17374 7.18712 4.3753C7.18961 6.61231 8.07935 8.75698 9.66115 10.3388C11.243 11.9206 13.3876 12.8103 15.6246 12.8128C15.8262 12.8128 16.027 12.8058 16.227 12.7917C15.7938 13.4998 15.2315 14.1202 14.5692 14.6206Z" fill="#121922"/>
</svg>
