<svg width="24" height="25" viewBox="0 0 24 25" fill="none" xmlns="http://www.w3.org/2000/svg">
    <path d="M7.27302 4.35449H3.94956C3.4273 4.35449 3 4.78181 3 5.30408C3 14.2207 10.2261 21.4471 19.1425 21.4471C19.6648 21.4471 20.0921 21.0198 20.0921 20.4975V17.1835C20.0921 16.6612 19.6648 16.2339 19.1425 16.2339C17.965 16.2339 16.8161 16.044 15.7526 15.6926C15.6576 15.6546 15.5532 15.6451 15.4582 15.6451C15.2113 15.6451 14.9739 15.7401 14.784 15.9205L12.695 18.0096C10.0077 16.6327 7.80477 14.4392 6.4374 11.7518L8.52643 9.66271C8.79231 9.39682 8.86827 9.02648 8.76382 8.69412C8.41249 7.63058 8.22257 6.49107 8.22257 5.30408C8.22257 4.78181 7.79527 4.35449 7.27302 4.35449Z" fill="#9397A6" />
    <path fill-rule="evenodd" clip-rule="evenodd" d="M19.1842 11.0015C19.1842 7.83183 16.6148 5.26238 13.4453 5.26238V3.44629C17.6178 3.44629 21.0003 6.82889 21.0003 11.0015H19.1842Z" fill="#9397A6" />
    <path fill-rule="evenodd" clip-rule="evenodd" d="M15.3859 11.0015C15.3859 9.92959 14.5171 9.06072 13.4453 9.06072V7.24463C15.5201 7.24463 17.202 8.92664 17.202 11.0015H15.3859Z" fill="#9397A6" />
</svg>