<svg width="24" height="25" viewBox="0 0 24 25" fill="none" xmlns="http://www.w3.org/2000/svg">
<g id="icon sidebar">
<path id="Union" fill-rule="evenodd" clip-rule="evenodd" d="M2.58823 18.8291L2.58822 18.8289C2.58743 18.8164 2.55988 18.3821 3.8652 17.8408C5.08635 17.3344 6.81426 17.0644 8.47058 17.0644C10.1269 17.0644 11.8548 17.3344 13.076 17.8408C14.3813 18.3821 14.3537 18.8164 14.353 18.8289L14.3529 18.8291V19.4174C14.3529 20.0671 13.8262 20.5938 13.1765 20.5938H3.7647C3.11496 20.5938 2.58823 20.0671 2.58823 19.4174V18.8291ZM10.8235 7.65266C10.8235 8.94812 9.76605 10.0056 8.47058 10.0056C7.17512 10.0056 6.11764 8.94812 6.11764 7.65266C6.11764 6.3572 7.17512 5.29972 8.47058 5.29972C9.76605 5.29972 10.8235 6.3572 10.8235 7.65266ZM8.47058 14.7115C4.76646 14.7115 0.235291 15.888 0.235291 18.8291V19.4174C0.235291 21.3666 1.81546 22.9468 3.7647 22.9468H13.1765C15.1257 22.9468 16.7059 21.3666 16.7059 19.4174V18.8291C16.7059 15.888 12.1747 14.7115 8.47058 14.7115ZM8.47058 12.3585C11.0655 12.3585 13.1765 10.2476 13.1765 7.65266C13.1765 5.0577 11.0655 2.94678 8.47058 2.94678C5.87563 2.94678 3.7647 5.0577 3.7647 7.65266C3.7647 10.2476 5.87563 12.3585 8.47058 12.3585ZM19.0588 18.8291C19.0588 16.7703 18.0705 15.6997 16.7058 14.7115C19.647 14.7115 23.7646 16.4527 23.7646 18.8291V19.4174C23.7646 21.3666 22.1845 22.9468 20.2352 22.9468H17.8823C17.8823 22.9468 19.0588 20.888 19.0588 18.8291ZM19.647 7.65266C19.647 9.92325 17.7999 11.7703 15.5294 11.7703C14.8941 11.7703 14.3058 11.6174 13.7646 11.3585C14.5058 10.3115 14.9411 9.02913 14.9411 7.65266C14.9411 6.27619 14.5058 4.99384 13.7646 3.94678C14.3058 3.68795 14.8941 3.53501 15.5294 3.53501C17.7999 3.53501 19.647 5.38207 19.647 7.65266Z" fill="#9397A6"/>
</g>
</svg>
