<svg  width="24" height="24" viewBox="0 0 24 24" fill="none" xmlns="http://www.w3.org/2000/svg">
<path id="Vector" d="M21.7538 8.38981C22.2368 7.94059 21.9684 7.15444 21.303 7.06255L15.1105 6.20494C14.8422 6.1641 14.6168 6.01095 14.4987 5.77613L11.7298 0.436464C11.4293 -0.145488 10.56 -0.145488 10.2595 0.436464L7.50126 5.77613C7.3832 6.00075 7.14709 6.1641 6.88951 6.20494L0.696957 7.06255C0.0315518 7.15444 -0.236756 7.94059 0.246199 8.38981L4.72158 12.5452C4.91477 12.7289 5.00062 12.9842 4.95769 13.2292L3.90592 19.0896C3.78787 19.7226 4.4962 20.2126 5.09721 19.9063L10.6351 17.1395C10.8712 17.017 11.161 17.017 11.3971 17.1395L16.935 19.9063C17.536 20.2024 18.2336 19.7226 18.1263 19.0896L17.0638 13.2292C17.0208 12.974 17.1067 12.7187 17.2999 12.5452L21.7538 8.38981Z" fill="#002CFB"/>
</svg>
