<svg width="24" height="24" viewBox="0 0 24 24" fill="none" xmlns="http://www.w3.org/2000/svg">
<g id="IconStar">
<path id="Vector (Stroke)" fill-rule="evenodd" clip-rule="evenodd" d="M13.5941 1.99387C13.594 1.99359 13.5943 1.99415 13.5941 1.99387L16.187 7.23212L21.9784 8.07238C21.9783 8.07236 21.9786 8.0724 21.9784 8.07238C23.4348 8.28338 24.0172 10.0778 22.964 11.105C22.9638 11.1052 22.9642 11.1048 22.964 11.105L18.7951 15.1797L19.7901 20.9293C20.0256 22.3843 18.5 23.4617 17.2071 22.7945L17.202 22.7919L12.0159 20.0774L6.83274 22.7903C5.53495 23.4789 3.98634 22.3803 4.24374 20.9176C4.24396 20.9163 4.24418 20.9151 4.24441 20.9138L5.22664 15.1802L1.0383 11.1062C-0.0156829 10.0791 0.565629 8.28348 2.02224 8.07244L7.81387 7.23215L10.3967 1.99387C11.0501 0.668472 12.9403 0.668946 13.5941 1.99387ZM11.9958 3.27324L14.4419 8.21494C14.7047 8.75694 15.2058 9.10254 15.7667 9.19199L21.2464 9.98711L17.3204 13.8243C16.8876 14.237 16.7113 14.8263 16.8013 15.3872L17.7409 20.8165L12.8488 18.2559C12.33 17.9776 11.7018 17.9776 11.183 18.2559L6.29012 20.8169L7.21853 15.3976L7.21919 15.3937C7.31493 14.8212 7.12123 14.2428 6.71341 13.8364L2.75603 9.98691L8.23063 9.19263L8.24075 9.19095C8.79674 9.0986 9.29627 8.7391 9.55465 8.22409L11.9958 3.27324ZM21.6921 10.0518C21.692 10.0518 21.6922 10.0518 21.6921 10.0518V10.0518Z" fill="#ADBFDF"/>
</g>
</svg>
