<svg width="24" height="24" viewBox="0 0 24 24" fill="none" xmlns="http://www.w3.org/2000/svg">
<g id="iconBackForward">
<path id="Vector 65 (Stroke)" fill-rule="evenodd" clip-rule="evenodd" d="M6.91429 11L10.8536 7.06067C11.0489 6.86541 11.0489 6.54883 10.8536 6.35357L10.1465 5.64646C9.95126 5.4512 9.63468 5.4512 9.43942 5.64646L3.43942 11.6465C3.24415 11.8417 3.24415 12.1583 3.43941 12.3536L9.43942 18.3536C9.63468 18.5488 9.95126 18.5488 10.1465 18.3536L10.8536 17.6465C11.0489 17.4512 11.0489 17.1346 10.8536 16.9394L6.91429 13L20.0001 13C20.2762 13 20.5001 12.7762 20.5001 12.5L20.5001 11.5C20.5001 11.2239 20.2762 11 20.0001 11L6.91429 11Z" fill="#002CFB"/>
</g>
</svg>
