<svg width="24" height="25" viewBox="0 0 24 25" fill="none" xmlns="http://www.w3.org/2000/svg">
<path fill-rule="evenodd" clip-rule="evenodd" d="M8.14532 11.2407L10.413 13.5216C10.5263 13.6356 10.5297 13.8187 10.4205 13.9368L9.71378 14.7013C9.59794 14.8266 9.40105 14.8302 9.28074 14.7092L5.21028 10.6149C5.09395 10.4979 5.09395 10.3089 5.21028 10.1919L9.28074 6.09756C9.40105 5.97654 9.59794 5.98012 9.71378 6.10542L10.4205 6.86994C10.5297 6.98799 10.5263 7.17109 10.413 7.2851L8.14532 9.56604H14.0582C16.7875 9.56604 19 11.8739 19 14.7208C19 17.5678 16.7875 19.8756 14.0582 19.8756H9.80136C9.63568 19.8756 9.50136 19.7413 9.50136 19.5756V18.501C9.50136 18.3353 9.63568 18.201 9.80136 18.201H14.0582C15.9008 18.201 17.3946 16.6429 17.3946 14.7208C17.3946 12.7988 15.9008 11.2407 14.0582 11.2407H8.14532Z" fill="#002CFB"/>
</svg>
