<svg width="24" height="25" viewBox="0 0 24 25" fill="none" xmlns="http://www.w3.org/2000/svg">
<path fill-rule="evenodd" clip-rule="evenodd" d="M8.6518 9.2499L6.8882 7.48629C6.77104 7.36913 6.77104 7.17918 6.8882 7.06203L7.31247 6.63776C7.42962 6.52061 7.61957 6.52061 7.73673 6.63776L10.7367 9.63776C10.8539 9.75492 10.8539 9.94487 10.7367 10.062L7.73673 13.062C7.61957 13.1792 7.42962 13.1792 7.31247 13.062L6.8882 12.6378C6.77105 12.5206 6.77105 12.3307 6.8882 12.2135L8.6518 10.4499L2.90035 10.4499C2.73467 10.4499 2.60035 10.3156 2.60035 10.1499L2.60035 9.5499C2.60035 9.38421 2.73467 9.2499 2.90035 9.2499L8.6518 9.2499Z" fill="#002CFB"/>
<path fill-rule="evenodd" clip-rule="evenodd" d="M11.6635 16.9469L11.6635 16.9471V17.8042C11.6635 18.2776 12.0473 18.6614 12.5206 18.6614H19.3778C19.8512 18.6614 20.2349 18.2776 20.2349 17.8042V16.9471L20.2349 16.9469C20.2355 16.9378 20.2556 16.6214 19.3046 16.227C18.4149 15.8581 17.156 15.6614 15.9492 15.6614C14.7425 15.6614 13.4836 15.8581 12.5939 16.227C11.6428 16.6214 11.6629 16.9378 11.6635 16.9469ZM15.9492 10.5185C16.8931 10.5185 17.6635 9.74805 17.6635 8.80421C17.6635 7.86037 16.8931 7.08993 15.9492 7.08993C15.0054 7.08993 14.2349 7.86037 14.2349 8.80421C14.2349 9.74805 15.0054 10.5185 15.9492 10.5185ZM9.94922 16.9471C9.94922 14.8042 13.2505 13.9471 15.9492 13.9471C18.6479 13.9471 21.9492 14.8042 21.9492 16.9471V17.8042C21.9492 19.2244 20.798 20.3756 19.3778 20.3756H12.5206C11.1005 20.3756 9.94922 19.2244 9.94922 17.8042V16.9471ZM19.3778 8.80421C19.3778 10.6948 17.8398 12.2328 15.9492 12.2328C14.0586 12.2328 12.5206 10.6948 12.5206 8.80421C12.5206 6.9136 14.0586 5.37564 15.9492 5.37564C17.8398 5.37564 19.3778 6.9136 19.3778 8.80421Z" fill="#002CFB"/>
</svg>
