<svg width="18" height="18" viewBox="0 0 18 18" fill="none" xmlns="http://www.w3.org/2000/svg">
<g clip-path="url(#clip0_897_26421)">
<path d="M9 1.49988C10.1643 1.49984 11.2833 1.95105 12.1219 2.75873C12.9604 3.5664 13.4533 4.66766 13.497 5.83113L13.5 5.99988H14.25C14.6284 5.99976 14.9929 6.14268 15.2704 6.4C15.5479 6.65732 15.7179 7.01001 15.7463 7.38738L15.75 7.49988V14.9999C15.7501 15.3783 15.6072 15.7428 15.3499 16.0203C15.0926 16.2978 14.7399 16.4677 14.3625 16.4961L14.25 16.4999H3.75C3.37157 16.5 3.00708 16.3571 2.72959 16.0998C2.4521 15.8424 2.28213 15.4897 2.25375 15.1124L2.25 14.9999V7.49988C2.24988 7.12145 2.3928 6.75695 2.65012 6.47947C2.90744 6.20198 3.26013 6.03201 3.6375 6.00363L3.75 5.99988H4.5C4.5 4.8064 4.97411 3.66181 5.81802 2.8179C6.66193 1.97398 7.80653 1.49988 9 1.49988ZM14.25 7.49988H3.75V14.9999H14.25V7.49988ZM9 8.99988C9.31994 8.99998 9.63147 9.10238 9.88908 9.29211C10.1467 9.48185 10.3369 9.74899 10.4319 10.0545C10.5269 10.36 10.5217 10.6879 10.4171 10.9903C10.3125 11.2926 10.114 11.5536 9.8505 11.7351L9.75 11.7989V12.7499C9.74979 12.941 9.67659 13.1249 9.54536 13.2639C9.41414 13.4029 9.23479 13.4866 9.04395 13.4978C8.85312 13.509 8.66522 13.4469 8.51863 13.3242C8.37204 13.2015 8.27783 13.0275 8.25525 12.8376L8.25 12.7499V11.7989C7.96406 11.6338 7.74058 11.3789 7.61423 11.0739C7.48788 10.7688 7.46572 10.4306 7.55118 10.1116C7.63664 9.79271 7.82495 9.51088 8.0869 9.30987C8.34885 9.10885 8.66981 8.99989 9 8.99988ZM9 2.99988C8.20435 2.99988 7.44129 3.31595 6.87868 3.87856C6.31607 4.44117 6 5.20423 6 5.99988H12C12 5.20423 11.6839 4.44117 11.1213 3.87856C10.5587 3.31595 9.79565 2.99988 9 2.99988Z" fill="#BFCBE0"/>
</g>
<defs>
<clipPath id="clip0_897_26421">
<rect width="18" height="18" fill="white"/>
</clipPath>
</defs>
</svg>
