<svg width="19" height="18" viewBox="0 0 19 18" fill="none" xmlns="http://www.w3.org/2000/svg">
<path d="M10.1897 8.01783C10.1696 7.90718 10.1089 7.80803 10.0194 7.73993C9.92994 7.67182 9.81821 7.63968 9.70621 7.64984C9.59422 7.66 9.49009 7.71172 9.41433 7.79482C9.33857 7.87792 9.29667 7.98638 9.29688 8.09883V12.1506L9.30408 12.2316C9.32411 12.3423 9.38485 12.4414 9.47433 12.5095C9.56381 12.5776 9.67554 12.6098 9.78754 12.5996C9.89953 12.5895 10.0037 12.5377 10.0794 12.4546C10.1552 12.3715 10.1971 12.2631 10.1969 12.1506V8.09883L10.1897 8.01783ZM10.466 6.07383C10.466 5.89481 10.3949 5.72312 10.2683 5.59653C10.1417 5.46994 9.97 5.39883 9.79098 5.39883C9.61195 5.39883 9.44027 5.46994 9.31368 5.59653C9.18709 5.72312 9.11597 5.89481 9.11597 6.07383C9.11597 6.25285 9.18709 6.42454 9.31368 6.55113C9.44027 6.67771 9.61195 6.74883 9.79098 6.74883C9.97 6.74883 10.1417 6.67771 10.2683 6.55113C10.3949 6.42454 10.466 6.25285 10.466 6.07383ZM16.9469 8.99883C16.9469 7.08927 16.1883 5.25792 14.838 3.90766C13.4878 2.5574 11.6564 1.79883 9.74688 1.79883C7.83732 1.79883 6.00597 2.5574 4.65571 3.90766C3.30544 5.25792 2.54688 7.08927 2.54688 8.99883C2.54688 10.9084 3.30544 12.7397 4.65571 14.09C6.00597 15.4403 7.83732 16.1988 9.74688 16.1988C11.6564 16.1988 13.4878 15.4403 14.838 14.09C16.1883 12.7397 16.9469 10.9084 16.9469 8.99883ZM3.44688 8.99883C3.44688 8.1715 3.60983 7.35227 3.92643 6.58792C4.24304 5.82357 4.70709 5.12906 5.2921 4.54406C5.87711 3.95905 6.57162 3.49499 7.33597 3.17839C8.10032 2.86178 8.91955 2.69883 9.74688 2.69883C10.5742 2.69883 11.3934 2.86178 12.1578 3.17839C12.9221 3.49499 13.6166 3.95905 14.2016 4.54406C14.7867 5.12906 15.2507 5.82357 15.5673 6.58792C15.8839 7.35227 16.0469 8.1715 16.0469 8.99883C16.0469 10.6697 15.3831 12.2721 14.2016 13.4536C13.0202 14.6351 11.4177 15.2988 9.74688 15.2988C8.07601 15.2988 6.47358 14.6351 5.2921 13.4536C4.11062 12.2721 3.44688 10.6697 3.44688 8.99883Z" fill="#BFCBE0"/>
</svg>
