<svg width="20" height="20" viewBox="0 0 20 20" fill="none" xmlns="http://www.w3.org/2000/svg">
<g id="icon button">
<path id="Union" fill-rule="evenodd" clip-rule="evenodd" d="M8.26243 1.91672C9.29526 1.36109 10.538 1.36109 11.5709 1.91672L16.8302 4.74603C17.6789 5.20262 18.2083 6.0885 18.2083 7.05226V12.4261C18.2083 13.7111 17.5025 14.8923 16.3708 15.5011L11.5709 18.0833C10.538 18.6389 9.29526 18.6389 8.26243 18.0833L3.46248 15.5011C2.33082 14.8923 1.625 13.7111 1.625 12.4261V7.05226C1.625 6.0885 2.15436 5.20262 3.00311 4.74603L5.79373 3.24478L8.26243 1.91672ZM10.7438 3.45421C10.2273 3.17639 9.60595 3.17639 9.08954 3.45421L8.05459 4.01097L13.6493 7.00076L15.4928 6.00902L10.7438 3.45421ZM16.4625 7.46984L14.0642 8.75999L10.7896 10.5216V16.5211L15.5437 13.9636C16.1095 13.6592 16.4625 13.0686 16.4625 12.4261V7.46984ZM9.04373 16.5211V10.5216L3.37085 7.46984V12.4261C3.37085 13.0686 3.72376 13.6592 4.28958 13.9636L9.04373 16.5211ZM4.34047 6.00902L9.91665 9.00878L11.8034 7.9938L6.20866 5.00401L4.34047 6.00902Z" fill="white"/>
</g>
</svg>
