<svg width="20" height="20" viewBox="0 0 20 20" fill="none" xmlns="http://www.w3.org/2000/svg">
<g id="icon button">
<path id="shape" fill-rule="evenodd" clip-rule="evenodd" d="M9.9974 1.66663C5.39502 1.66663 1.66406 5.39759 1.66406 9.99996C1.66406 14.6023 5.39502 18.3333 9.9974 18.3333C14.5998 18.3333 18.3307 14.6023 18.3307 9.99996C18.3307 5.39759 14.5998 1.66663 9.9974 1.66663ZM3.33073 9.99996C3.33073 6.31806 6.3155 3.33329 9.9974 3.33329C11.538 3.33329 12.9566 3.85587 14.0855 4.73344L4.73088 14.088C3.85331 12.9591 3.33073 11.5406 3.33073 9.99996ZM5.90939 15.2665C7.03829 16.1441 8.45682 16.6666 9.9974 16.6666C13.6793 16.6666 16.6641 13.6819 16.6641 9.99996C16.6641 8.45938 16.1415 7.04086 15.264 5.91196L5.90939 15.2665Z" fill="#E75A5A"/>
</g>
</svg>
