<svg width="17" height="16" viewBox="0 0 17 16" fill="none" xmlns="http://www.w3.org/2000/svg">
<g id="iconDocument">
<path id="Vector (Stroke)" fill-rule="evenodd" clip-rule="evenodd" d="M6.0013 1.33333C4.16035 1.33333 2.66797 2.82572 2.66797 4.66667V11.3333C2.66797 13.1743 4.16035 14.6667 6.0013 14.6667H11.3346C13.1756 14.6667 14.668 13.1743 14.668 11.3333V5.77124C14.668 5.74475 14.6676 5.71831 14.6668 5.69191C14.6652 5.63842 14.662 5.58514 14.6572 5.53211C14.6015 4.91254 14.3303 4.32904 13.8869 3.88562L12.1157 2.11438C11.6489 1.64764 11.027 1.37179 10.3712 1.33706C10.3243 1.33458 10.2772 1.33333 10.2301 1.33333H6.0013ZM13.0784 4.98527C13.038 4.92994 12.9932 4.87747 12.9441 4.82843L11.1729 3.05719C11.0508 2.93514 10.9076 2.8392 10.7517 2.77296V3.65194C10.7517 4.38832 11.3487 4.98527 12.0851 4.98527H13.0784ZM13.3346 6.3186H12.0851C10.6123 6.3186 9.41841 5.1247 9.41841 3.65194V2.66667H6.0013C4.89673 2.66667 4.0013 3.5621 4.0013 4.66667V11.3333C4.0013 12.4379 4.89673 13.3333 6.0013 13.3333H11.3346C12.4392 13.3333 13.3346 12.4379 13.3346 11.3333V6.3186ZM5.33464 10.6667C5.33464 10.2985 5.63311 10 6.0013 10H11.3346C11.7028 10 12.0013 10.2985 12.0013 10.6667C12.0013 11.0349 11.7028 11.3333 11.3346 11.3333H6.0013C5.63311 11.3333 5.33464 11.0349 5.33464 10.6667ZM5.33464 8C5.33464 7.63181 5.63311 7.33333 6.0013 7.33333H11.3346C11.7028 7.33333 12.0013 7.63181 12.0013 8C12.0013 8.36819 11.7028 8.66667 11.3346 8.66667H6.0013C5.63311 8.66667 5.33464 8.36819 5.33464 8Z" fill="#71869D"/>
</g>
</svg>
