<svg width="18" height="16" viewBox="0 0 18 16" fill="none" xmlns="http://www.w3.org/2000/svg">
<g id="Group">
<path id="Vector" d="M14.8307 14.6665V9.6665M14.8307 9.6665L16.4974 11.3332M14.8307 9.6665L13.1641 11.3332" stroke="white" stroke-width="1.25" stroke-linecap="round" stroke-linejoin="round"/>
<path id="Vector_2" d="M17.3307 7.99992C17.3307 4.85742 17.3307 3.28575 16.3541 2.30992C15.3782 1.33325 13.8066 1.33325 10.6641 1.33325H7.33073C4.18823 1.33325 2.61656 1.33325 1.64073 2.30992C0.664062 3.28575 0.664062 4.85742 0.664062 7.99992C0.664062 11.1424 0.664062 12.7141 1.64073 13.6899C2.61656 14.6666 4.18823 14.6666 7.33073 14.6666H10.6641M7.33073 11.3333H3.9974M9.83073 11.3333H9.41406M0.664062 6.33325H17.3307" stroke="white" stroke-width="1.25" stroke-linecap="round"/>
</g>
</svg>
