<svg width="17" height="16" viewBox="0 0 17 16" fill="none" xmlns="http://www.w3.org/2000/svg">
<g id="IconPayMent">
<path id="Union" fill-rule="evenodd" clip-rule="evenodd" d="M4.66667 2.66663C3.19391 2.66663 2 3.86053 2 5.33329V10.6666C2 12.1394 3.19391 13.3333 4.66667 13.3333H7.33333C7.70152 13.3333 8 13.0348 8 12.6666C8 12.2984 7.70152 12 7.33333 12H4.66667C3.93029 12 3.33333 11.403 3.33333 10.6666V7.33329H14V7.66663C14 8.03482 14.2985 8.33329 14.6667 8.33329C15.0349 8.33329 15.3333 8.03482 15.3333 7.66663V5.33329C15.3333 3.86053 14.1394 2.66663 12.6667 2.66663H4.66667ZM14 5.33329C14 4.59691 13.403 3.99996 12.6667 3.99996H4.66667C3.93029 3.99996 3.33333 4.59691 3.33333 5.33329L14 5.33329Z" fill="#0024CB"/>
<path id="Subtract" fill-rule="evenodd" clip-rule="evenodd" d="M8.67188 11.3333C8.67188 9.49228 10.1642 8 12.0052 8C13.8463 8 15.3385 9.49228 15.3385 11.3333C15.3385 13.1744 13.8463 14.6667 12.0052 14.6667C10.1642 14.6667 8.67188 13.1744 8.67188 11.3333ZM14.1357 10.7793C14.3821 10.5576 14.402 10.1783 14.1803 9.93196C13.9587 9.68565 13.5793 9.66568 13.333 9.88736L11.5121 11.5261L10.8024 10.8874C10.5561 10.6657 10.1767 10.6856 9.95506 10.932C9.73338 11.1783 9.75335 11.5576 9.99966 11.7793L11.1108 12.7793C11.339 12.9847 11.6853 12.9847 11.9135 12.7793L14.1357 10.7793Z" fill="#0024CB"/>
</g>
</svg>
