<svg width="20" height="20" viewBox="0 0 20 20" fill="none" xmlns="http://www.w3.org/2000/svg">
<path d="M17.4403 11.6666C17.2396 13.0551 16.5453 14.3247 15.4847 15.243C14.4241 16.1612 13.0682 16.6666 11.6653 16.6666H4.58198V14.9999H11.6653C12.7704 14.9999 13.8302 14.561 14.6116 13.7796C15.393 12.9982 15.832 11.9383 15.832 10.8333C15.832 9.72821 15.393 8.66841 14.6116 7.887C13.8302 7.1056 12.7704 6.66662 11.6653 6.66662H5.76031L7.84365 8.74995L6.66531 9.92828L2.57031 5.83328L6.66531 1.73828L7.84365 2.91661L5.76031 4.99995H11.6653C13.2124 4.99995 14.6961 5.61453 15.7901 6.70849C16.8841 7.80245 17.4986 9.28619 17.4986 10.8333V11.6666H17.4403Z" fill="#E75A5A"/>
</svg>
