<svg width="17" height="16" viewBox="0 0 17 16" fill="none" xmlns="http://www.w3.org/2000/svg">
<g id="tmplate-document">
<g id="shape">
<path fill-rule="evenodd" clip-rule="evenodd" d="M13.9987 5.3335V14.0002C13.9987 14.3684 13.7002 14.6668 13.332 14.6668H9.9987V13.3335H12.6654V6.66683H9.33203C8.96384 6.66683 8.66536 6.36835 8.66536 6.00016V2.66683H4.66536V8.00016H3.33203V2.00016C3.33203 1.63197 3.63051 1.3335 3.9987 1.3335H9.9987C10.1755 1.3335 10.3451 1.40373 10.4701 1.52876L13.8034 4.86209C13.9285 4.98712 13.9987 5.15669 13.9987 5.3335ZM9.9987 2.94297V5.3335H12.3892L9.9987 2.94297Z" fill="#BFCBE0"/>
<path d="M3.33203 14.0002V10.6668H4.66536V13.3335H7.33203V14.6668H3.9987C3.63051 14.6668 3.33203 14.3684 3.33203 14.0002Z" fill="#BFCBE0"/>
</g>
</g>
</svg>
