<svg width="20" height="20" viewBox="0 0 20 20" fill="none" xmlns="http://www.w3.org/2000/svg">
<path d="M15.8333 4.40133H15V5.23467V14.1666C15 15.5473 13.8807 16.6666 12.5 16.6666H7.5C6.11929 16.6666 5 15.5473 5 14.1666V5.23467V4.40133H4.16667H3.33333V4.16663H7.5H8.33333V3.33329L8.33333 2.49996H11.6667V3.33329V4.16663H12.5H16.6667V4.40133H15.8333Z" stroke="#E75A5A" stroke-width="1.66667"/>
<path fill-rule="evenodd" clip-rule="evenodd" d="M7.91667 14.1667C7.68655 14.1667 7.5 13.9801 7.5 13.75V7.91667C7.5 7.68655 7.68655 7.5 7.91667 7.5H8.75C8.98012 7.5 9.16667 7.68655 9.16667 7.91667V13.75C9.16667 13.9801 8.98012 14.1667 8.75 14.1667H7.91667Z" fill="#E75A5A"/>
<path fill-rule="evenodd" clip-rule="evenodd" d="M11.2487 14.1667C11.0186 14.1667 10.832 13.9801 10.832 13.75V7.91667C10.832 7.68655 11.0186 7.5 11.2487 7.5H12.082C12.3121 7.5 12.4987 7.68655 12.4987 7.91667V13.75C12.4987 13.9801 12.3122 14.1667 12.082 14.1667H11.2487Z" fill="#E75A5A"/>
</svg>
