<svg width="17" height="16" viewBox="0 0 17 16" fill="none" xmlns="http://www.w3.org/2000/svg">
<g id="cash-operation">
<g id="shape">
<path d="M2 2.66667C2 2.29848 2.29848 2 2.66667 2H14.6667C15.0349 2 15.3333 2.29848 15.3333 2.66667L15.3333 6H14V4.60977C13.8957 4.64662 13.7835 4.66667 13.6667 4.66667C13.1144 4.66667 12.6667 4.21895 12.6667 3.66667C12.6667 3.54979 12.6867 3.43759 12.7236 3.33333L4.60976 3.33333C4.64661 3.43759 4.66667 3.54979 4.66667 3.66667C4.66667 4.21895 4.21895 4.66667 3.66667 4.66667C3.54979 4.66667 3.43759 4.64662 3.33333 4.60977V8.0569C3.43759 8.02005 3.54979 8 3.66667 8C4.21895 8 4.66667 8.44772 4.66667 9C4.66667 9.11688 4.64661 9.22907 4.60976 9.33333L6 9.33333V10.6667L2.66667 10.6667C2.48986 10.6667 2.32029 10.5964 2.19526 10.4714C2.07024 10.3464 2 10.1768 2 10V2.66667Z" fill="#0024CB"/>
<path d="M15.8047 10.862L12.4714 7.52865L11.5286 8.47145L13.7238 10.6667H7.33333V12H13.7239L11.5286 14.1953L12.4714 15.1381L15.8047 11.8048C16.0651 11.5444 16.0651 11.1223 15.8047 10.862Z" fill="#0024CB"/>
</g>
</g>
</svg>
