<svg width="20" height="20" viewBox="0 0 20 20" fill="none" xmlns="http://www.w3.org/2000/svg">
<path d="M16.6693 2.50033C16.6693 2.04009 16.2962 1.66699 15.8359 1.66699H4.16927C3.70903 1.66699 3.33594 2.04009 3.33594 2.50033V17.5003C3.33594 17.9606 3.70903 18.3337 4.16927 18.3337H8.33594V16.667H5.0026V3.33366H15.0026V7.50033H16.6693V2.50033Z" fill="white"/>
<path d="M15.0026 10.8337C14.3549 10.8337 13.7527 11.0176 13.2424 11.3356L12.3608 9.92125C13.1279 9.4431 14.0343 9.16699 15.0026 9.16699C17.764 9.16699 20.0026 11.4056 20.0026 14.167C20.0026 16.9284 17.764 19.167 15.0026 19.167C12.3903 19.167 10.2458 17.1636 10.0219 14.6094L9.05787 15.7184L7.80002 14.625L10.1195 11.9567C10.4215 11.6093 10.9478 11.5725 11.2952 11.8745L13.9635 14.194L12.8701 15.4518L11.6784 14.416C11.8058 16.1406 13.2454 17.5003 15.0026 17.5003C16.8436 17.5003 18.3359 16.0079 18.3359 14.167C18.3359 12.326 16.8436 10.8337 15.0026 10.8337Z" fill="white"/>
</svg>
