<svg width="20" height="20" viewBox="0 0 20 20" fill="none" xmlns="http://www.w3.org/2000/svg">
<g id="icon button">
<g id="shape">
<path d="M18.3346 9.16667C18.3346 11.4679 16.4692 13.3333 14.168 13.3333V11.6667C15.5487 11.6667 16.668 10.5474 16.668 9.16667C16.668 7.94406 15.7838 6.90599 14.593 6.70252C14.2923 6.65113 14.0437 6.43948 13.9449 6.15078C13.3733 4.47938 11.7967 3.33333 10.0013 3.33333C7.70012 3.33333 5.83464 5.19881 5.83464 7.5C5.83464 7.96024 5.46154 8.33333 5.0013 8.33333C4.08083 8.33333 3.33464 9.07953 3.33464 10C3.33464 10.9205 4.08083 11.6667 5.0013 11.6667H5.83464V13.3333H5.0013C3.16035 13.3333 1.66797 11.841 1.66797 10C1.66797 8.43011 2.75324 7.11369 4.21445 6.76008C4.57804 3.88777 7.03029 1.66667 10.0013 1.66667C12.3535 1.66667 14.437 3.07157 15.3508 5.17033C17.093 5.68434 18.3346 7.29529 18.3346 9.16667Z" fill="white"/>
<path d="M9.16781 12.8511V18.3333H10.8345V12.8393L11.9178 13.9226L13.0963 12.7441L10.5963 10.2441C10.2709 9.91864 9.74324 9.91864 9.41781 10.2441L6.91781 12.7441L8.09632 13.9226L9.16781 12.8511Z" fill="white"/>
</g>
</g>
</svg>
