<svg width="20" height="20" viewBox="0 0 20 20" fill="none" xmlns="http://www.w3.org/2000/svg">
<g id="icon button">
<g id="shape">
<path d="M9.9987 6.66667C9.9987 7.58714 9.25251 8.33333 8.33203 8.33333C7.41156 8.33333 6.66537 7.58714 6.66537 6.66667C6.66537 5.74619 7.41156 5 8.33203 5C9.25251 5 9.9987 5.74619 9.9987 6.66667Z" fill="white"/>
<path fill-rule="evenodd" clip-rule="evenodd" d="M8.32574 1.66667C9.47417 1.66523 10.5881 2.05916 11.4803 2.78227C12.3725 3.50538 12.9885 4.51358 13.225 5.63741C13.4614 6.76125 13.3037 7.93221 12.7784 8.95348C12.3377 9.81034 11.657 10.5158 10.832 10.9929V13.3333H11.6654C12.1256 13.3333 12.4987 13.7064 12.4987 14.1667V17.5C12.4987 17.9602 12.1256 18.3333 11.6654 18.3333H6.66537C6.20513 18.3333 5.83204 17.9602 5.83204 17.5V10.9997C5.00609 10.5227 4.33232 9.81668 3.89141 8.96467C3.36359 7.94472 3.20297 6.77416 3.43655 5.64974C3.67012 4.52531 4.28365 3.51556 5.17402 2.79021C6.06439 2.06486 7.17731 1.66812 8.32574 1.66667ZM10.832 15H9.16537V9.9379L9.66393 9.71919C10.3679 9.41037 10.9475 8.86933 11.2963 8.19121C11.6465 7.51036 11.7516 6.72972 11.594 5.9805C11.4364 5.23127 11.0257 4.55914 10.4309 4.07707C9.83607 3.595 9.09346 3.33237 8.32784 3.33334C7.56222 3.3343 6.82027 3.59879 6.22669 4.08236C5.63311 4.56593 5.22409 5.2391 5.06838 5.98871C4.91266 6.73833 5.01974 7.5187 5.37162 8.19867C5.72434 8.88026 6.298 9.41923 6.99823 9.72431L7.4987 9.94236V16.6667H10.832V15Z" fill="white"/>
<path fill-rule="evenodd" clip-rule="evenodd" d="M19.7546 10.5893L16.4213 13.9226C16.0958 14.248 15.5682 14.248 15.2428 13.9226L13.5761 12.2559L14.7546 11.0774L15.832 12.1548L18.5761 9.41075L19.7546 10.5893Z" fill="white"/>
</g>
</g>
</svg>
