<svg width="40" height="40" viewBox="0 0 40 40" fill="none" xmlns="http://www.w3.org/2000/svg">
<rect width="40" height="40" rx="9.23077" fill="#D4DFF3" fill-opacity="0.17"/>
<path fill-rule="evenodd" clip-rule="evenodd" d="M24.3789 8.24272C24.3398 8.23786 24.3 8.23535 24.2595 8.23535H15.9458C14.2465 8.23535 12.8689 9.61294 12.8689 11.3123V11.9638H14.7673V11.6562C14.7673 10.8065 15.4561 10.1177 16.3058 10.1177H23.3103V13.8392L24.3068 14.8236H28.0564V25.5204C28.0564 26.3701 27.3676 27.0589 26.518 27.0589H26.1183L26.1599 28.9412H26.878C28.5773 28.9412 29.9549 27.5637 29.9549 25.8643V13.8824C29.9549 13.8481 29.953 13.8139 29.9493 13.78C29.9487 13.7747 29.9481 13.7694 29.9474 13.7643C29.9461 13.7544 29.9447 13.7446 29.9432 13.7347C29.9385 13.7051 29.9325 13.676 29.9248 13.6474L29.9172 13.619C29.908 13.5878 29.8973 13.5572 29.8849 13.5278L29.8766 13.5076C29.865 13.4812 29.8523 13.4554 29.8384 13.4307C29.8328 13.4206 29.8271 13.4106 29.8213 13.4006C29.8054 13.3743 29.7882 13.3487 29.7702 13.3246C29.7651 13.3177 29.7598 13.3108 29.7545 13.304L29.7551 13.3047C29.7399 13.2854 29.724 13.2667 29.7075 13.2487C29.7239 13.2666 29.7396 13.285 29.7545 13.304L29.6769 13.2169L24.9307 8.51102L24.8532 8.44212L24.8417 8.43312L24.8226 8.41873C24.7978 8.40057 24.772 8.38358 24.7453 8.36793C24.7354 8.36205 24.7253 8.35635 24.7155 8.35081C24.6902 8.33706 24.6642 8.32442 24.6374 8.31312L24.6118 8.30227C24.5836 8.29109 24.5547 8.28122 24.5253 8.27298L24.4965 8.26492C24.4677 8.25758 24.4384 8.25154 24.4084 8.24699C24.3981 8.24536 24.3877 8.24391 24.3774 8.24263L24.3789 8.24272ZM24.3774 8.24263L24.2595 8.23535C24.2991 8.23535 24.3385 8.2378 24.3774 8.24263ZM25.2088 11.4495L26.7142 12.9412H25.2088V11.4495Z" fill="#002CFB" fill-opacity="0.05"/>
<path fill-rule="evenodd" clip-rule="evenodd" d="M21.3395 11.0588C21.3796 11.0588 21.4191 11.0613 21.4579 11.0662L21.3395 11.0588C21.3893 11.0588 21.4386 11.0628 21.4871 11.0705C21.5168 11.075 21.5459 11.0811 21.5745 11.0884C21.5841 11.0911 21.5935 11.0937 21.603 11.0965C21.6322 11.1047 21.6608 11.1146 21.6888 11.1258C21.6972 11.1294 21.7057 11.1329 21.7142 11.1366C21.7408 11.1479 21.7665 11.1605 21.7916 11.1743C21.8013 11.1798 21.8113 11.1855 21.8212 11.1914C21.8477 11.2071 21.8732 11.2241 21.8978 11.2422C21.9038 11.2467 21.9103 11.2516 21.9167 11.2566C21.9209 11.2598 21.9246 11.2627 21.9282 11.2656L22.005 11.3345L26.7109 16.0404C26.7385 16.068 26.7644 16.0973 26.7885 16.1282L26.7109 16.0404C26.7447 16.0741 26.7756 16.1102 26.8035 16.1481C26.8214 16.1722 26.8384 16.1978 26.8541 16.2241C26.8599 16.2341 26.8656 16.2441 26.8711 16.2542C26.8849 16.2789 26.8975 16.3047 26.909 16.3311C26.9117 16.3379 26.9145 16.3446 26.9172 16.3512C26.9295 16.3807 26.9401 16.4113 26.9492 16.4425C26.9517 16.4519 26.9543 16.4614 26.9568 16.4709C26.9644 16.4995 26.9704 16.5286 26.9751 16.5581C26.9765 16.5681 26.9779 16.5779 26.9791 16.5877C26.9799 16.5929 26.9805 16.5982 26.9811 16.6035C26.9847 16.6374 26.9866 16.6715 26.9866 16.7059V28.6878C26.9866 30.3871 25.609 31.7647 23.9097 31.7647H13.1223C11.423 31.7647 10.0454 30.3871 10.0454 28.6878V14.1358C10.0454 12.4364 11.423 11.0588 13.1223 11.0588H21.3395ZM20.3984 12.9412H13.4662C12.6166 12.9412 11.9278 13.63 11.9278 14.4797V28.3439C11.9278 29.1936 12.6166 29.8824 13.4662 29.8824H23.5658C24.4154 29.8824 25.1042 29.1936 25.1042 28.3439V17.6471H21.3395C20.8197 17.6471 20.3984 17.2257 20.3984 16.7059V12.9412ZM23.0898 19.1219C23.4529 19.2619 23.6925 19.6109 23.6925 20V27.5294C23.6925 28.0492 23.2711 28.4706 22.7513 28.4706H14.2807C13.7609 28.4706 13.3395 28.0492 13.3395 27.5294V23.2941C13.3395 22.9802 13.4962 22.6867 13.7572 22.512C14.0182 22.3373 14.3491 22.3043 14.6394 22.424L18.0225 23.8188L22.0537 19.3682C22.315 19.0798 22.7268 18.9819 23.0898 19.1219ZM15.6925 15.2941C17.2519 15.2941 18.516 16.5583 18.516 18.1177C18.516 19.677 17.2519 20.9412 15.6925 20.9412C14.1331 20.9412 12.8689 19.677 12.8689 18.1177C12.8689 16.5583 14.1331 15.2941 15.6925 15.2941ZM23.7734 15.7647L22.2807 14.273V15.7647H23.7734Z" fill="#ADBFDF"/>
</svg>
