<svg width="20" height="20" viewBox="0 0 20 20" fill="none" xmlns="http://www.w3.org/2000/svg">
<g id="iconWarning">
<path id="Vector" fill-rule="evenodd" clip-rule="evenodd" d="M9.03308 2.6449C9.46734 1.89603 10.534 1.89604 10.9682 2.6449L18.9845 16.2499C19.4253 17.01 19.0364 17.9166 18.1678 17.9166H1.83352C0.964844 17.9166 0.576031 17.01 1.01681 16.2499L9.03308 2.6449ZM11.2257 15.8333C11.2257 16.463 10.6828 17.0833 10.0007 17.0833C9.18394 17.0833 8.76458 16.3955 8.76458 15.7658C8.76458 15.1361 9.31758 14.6256 9.99973 14.6256C10.6819 14.6256 11.2257 15.2035 11.2257 15.8333ZM10.0007 5.41659C9.38051 5.41659 8.954 6.03686 8.954 6.66658V12.3451C8.954 12.9749 9.38051 13.7499 10.0007 13.7499C10.6208 13.7499 11.0053 12.9749 11.0053 12.3451V6.66658C11.0053 6.03686 10.6208 5.41659 10.0007 5.41659Z" fill="#E75A5A"/>
</g>
</svg>
