<svg width="20" height="20" viewBox="0 0 20 20" fill="none" xmlns="http://www.w3.org/2000/svg">
<path fill-rule="evenodd" clip-rule="evenodd" d="M5.08001 1.875C5.08001 1.52982 5.35983 1.25 5.70501 1.25H6.42367C6.76885 1.25 7.04867 1.52982 7.04867 1.875V2.73123H12.9547V1.875C12.9547 1.52982 13.2345 1.25 13.5797 1.25H14.2983C14.6435 1.25 14.9233 1.52982 14.9233 1.875V2.73123H15.2532C17.1862 2.73123 18.7532 4.29824 18.7532 6.23123V15.2497C18.7532 17.1827 17.1862 18.7497 15.2532 18.7497H4.75C2.81701 18.7497 1.25 17.1827 1.25 15.2497V6.23123C1.25 4.29823 2.81701 2.73123 4.75 2.73123H5.08001V1.875ZM3.25 15.2497V7.32765H16.7532V15.2497C16.7532 16.0781 16.0816 16.7497 15.2532 16.7497H4.75C3.92157 16.7497 3.25 16.0781 3.25 15.2497ZM11.4879 11.6708C11.1428 11.6708 10.8629 11.9507 10.8629 12.2958V14.5182C10.8629 14.8634 11.1428 15.1432 11.4879 15.1432H14.5444C14.8896 15.1432 15.1694 14.8634 15.1694 14.5182V12.2958C15.1694 11.9507 14.8896 11.6708 14.5444 11.6708H11.4879Z" fill="#ADBFDF"/>
</svg>
