<svg width="24" height="24" viewBox="0 0 24 24" fill="none" xmlns="http://www.w3.org/2000/svg">
<path fill-rule="evenodd" clip-rule="evenodd" d="M11 12.8C11.1105 12.8 11.2 12.8895 11.2 13L11.2 18.6C11.2 18.8209 11.3791 19 11.6 19H12.4C12.6209 19 12.8 18.8209 12.8 18.6V13C12.8 12.8895 12.8895 12.8 13 12.8H18.6C18.8209 12.8 19 12.6209 19 12.4V11.6C19 11.3791 18.8209 11.2 18.6 11.2H13C12.8895 11.2 12.8 11.1105 12.8 11V5.4C12.8 5.17909 12.6209 5 12.4 5H11.6C11.3791 5 11.2 5.17909 11.2 5.4L11.2 11C11.2 11.1105 11.1105 11.2 11 11.2H5.4C5.17909 11.2 5 11.3791 5 11.6V12.4C5 12.6209 5.17909 12.8 5.4 12.8H11Z" fill="#ADBFDF"/>
</svg>
