<svg width="16" height="16" viewBox="0 0 16 16" fill="none" xmlns="http://www.w3.org/2000/svg">
<path d="M3.33333 12.6667V3.33333H8V8H12.6667V8.66667C13.1333 8.66667 13.6667 8.66667 14 8.66667V6L10 2H3.33333C2.59333 2 2 2.59333 2 3.33333V12.6667C2 13.0203 2.14048 13.3594 2.39052 13.6095C2.64057 13.8595 2.97971 14 3.33333 14H8.66667C8.66667 13.6667 8.66667 13.1333 8.66667 12.6667H3.33333ZM9.33333 3L13 6.66667H9.33333V3Z" fill="#002CFB"/>
<path d="M12.5947 11.6635L14.0007 13.0629L13.0634 14.0002L11.664 12.5942L10.2647 14.0002L9.33398 13.0629L10.7333 11.6635L9.33398 10.2642L10.2647 9.3335L11.664 10.7328L13.0634 9.3335L14.0007 10.2642L12.5947 11.6635Z" fill="#002CFB"/>
</svg>
