<svg width="24" height="24" viewBox="0 0 24 24" fill="none" xmlns="http://www.w3.org/2000/svg">
<rect width="24" height="24" rx="4" fill="#F8FAFD"/>
<path fill-rule="evenodd" clip-rule="evenodd" d="M6.26875 8.0625C5.567 8.0625 5 8.60927 5 9.28514V13.4922C5 14.8423 6.13575 15.9375 7.53575 15.9375H13.6485C14.3485 15.9375 14.9172 15.3899 14.9172 14.714V10.5086C14.917 9.85994 14.6497 9.23789 14.174 8.7792C13.6984 8.32051 13.0533 8.06272 12.3806 8.0625H6.26875ZM19 9.16701V14.833C19 15.292 18.4593 15.5586 18.0734 15.2878L16.2717 14.0238C16.123 13.9195 16.0019 13.7827 15.9184 13.6246C15.8349 13.4665 15.7914 13.2916 15.7914 13.1142V10.8849C15.7914 10.5247 15.9699 10.1871 16.2726 9.97535L18.0734 8.71137C18.1605 8.65036 18.2634 8.61376 18.3707 8.60564C18.478 8.59752 18.5856 8.61818 18.6815 8.66533C18.7774 8.71249 18.8579 8.78431 18.9141 8.87285C18.9703 8.96139 19.0001 9.06319 19 9.16701Z" fill="#002CFB"/>
</svg>
