<svg width="24" height="24" viewBox="0 0 24 24" fill="none" xmlns="http://www.w3.org/2000/svg">
<rect width="24" height="24" rx="4" fill="#F8FAFD"/>
<path fill-rule="evenodd" clip-rule="evenodd" d="M11.7786 6.16682C11.6709 6.23851 11.6 6.36097 11.6 6.5C11.6 6.72091 11.7791 6.9 12 6.9C12.2209 6.9 12.4 6.72091 12.4 6.5C12.4 6.36097 12.3291 6.23851 12.2214 6.16682C12.1577 6.12454 12.0813 6.1 12 6.1C11.9187 6.1 11.8423 6.12454 11.7786 6.16682ZM8 7.6H7.5C7.00294 7.6 6.6 8.00294 6.6 8.5V16.5C6.6 16.9971 7.00294 17.4 7.5 17.4H16.5C16.9971 17.4 17.4 16.9971 17.4 16.5V8.5C17.4 8.00294 16.9971 7.6 16.5 7.6H16V7.69999C16 8.41796 15.418 8.99999 14.7 8.99999H9.3C8.58203 8.99999 8 8.41796 8 7.69999V7.6ZM12 4.5C12.9319 4.5 13.715 5.13739 13.937 6H16.5C17.8807 6 19 7.11929 19 8.5V16.5C19 17.8807 17.8807 19 16.5 19H7.5C6.11929 19 5 17.8807 5 16.5V8.5C5 7.11929 6.11929 6 7.5 6H10.063C10.285 5.13739 11.0681 4.5 12 4.5ZM12 13.2C12.8271 13.2 13.5 12.5271 13.5 11.7C13.5 10.8729 12.8271 10.2 12 10.2C11.1729 10.2 10.5 10.8729 10.5 11.7C10.5 12.5271 11.1729 13.2 12 13.2ZM12 13.5994C10.8006 13.5994 9 13.9709 9 14.8997V15.0854C9 15.701 9.36882 16.2 10 16.2H14C14.6312 16.2 15 15.701 15 15.0854V14.8997C15 13.9709 13.1994 13.5994 12 13.5994Z" fill="#002CFB"/>
</svg>
