<svg width="20" height="20" viewBox="0 0 20 20" fill="none" xmlns="http://www.w3.org/2000/svg">
<path d="M15.8081 12.9419C15.9253 13.0592 16.0842 13.125 16.25 13.125C16.4158 13.125 16.5747 13.0592 16.6919 12.9419C16.8092 12.8247 16.875 12.6658 16.875 12.5C16.875 12.3342 16.8092 12.1753 16.6919 12.0581L10.4419 5.80806C10.1979 5.56398 9.80214 5.56398 9.55806 5.80806L3.30806 12.0581C3.19085 12.1753 3.125 12.3342 3.125 12.5C3.125 12.6658 3.19085 12.8247 3.30806 12.9419C3.42527 13.0592 3.58424 13.125 3.75 13.125C3.91576 13.125 4.07473 13.0592 4.19194 12.9419L10 7.13388L15.8081 12.9419Z" fill="#BFCBE0"/>
</svg>
