<svg width="24" height="24" viewBox="0 0 24 24" fill="none" xmlns="http://www.w3.org/2000/svg">
<g id="iconWeb">
<path id="Vector" d="M16.186 13.9204C16.2628 13.2868 16.3204 12.6532 16.3204 12.0004C16.3204 11.3476 16.2628 10.714 16.186 10.0804H19.4308C19.5844 10.6948 19.6804 11.338 19.6804 12.0004C19.6804 12.6628 19.5844 13.306 19.4308 13.9204H16.186ZM14.4868 19.258C15.0628 18.1924 15.5044 17.0404 15.8116 15.8404H18.6436C17.722 17.4244 16.2532 18.6532 14.4868 19.258ZM14.2468 13.9204H9.75399C9.65799 13.2868 9.60039 12.6532 9.60039 12.0004C9.60039 11.3476 9.65799 10.7044 9.75399 10.0804H14.2468C14.3332 10.7044 14.4004 11.3476 14.4004 12.0004C14.4004 12.6532 14.3332 13.2868 14.2468 13.9204ZM12.0004 19.642C11.2036 18.49 10.5604 17.2132 10.1668 15.8404H13.834C13.4404 17.2132 12.7972 18.49 12.0004 19.642ZM8.16039 8.16039H5.35719C6.26919 6.56679 7.74759 5.33799 9.50439 4.74279C8.92839 5.80839 8.49639 6.96039 8.16039 8.16039ZM5.35719 15.8404H8.16039C8.49639 17.0404 8.92839 18.1924 9.50439 19.258C7.74759 18.6532 6.26919 17.4244 5.35719 15.8404ZM4.56999 13.9204C4.41639 13.306 4.32039 12.6628 4.32039 12.0004C4.32039 11.338 4.41639 10.6948 4.56999 10.0804H7.81479C7.73799 10.714 7.68039 11.3476 7.68039 12.0004C7.68039 12.6532 7.73799 13.2868 7.81479 13.9204H4.56999ZM12.0004 4.34919C12.7972 5.50119 13.4404 6.78759 13.834 8.16039H10.1668C10.5604 6.78759 11.2036 5.50119 12.0004 4.34919ZM18.6436 8.16039H15.8116C15.5044 6.96039 15.0628 5.80839 14.4868 4.74279C16.2532 5.34759 17.722 6.56679 18.6436 8.16039ZM12.0004 2.40039C6.69159 2.40039 2.40039 6.72039 2.40039 12.0004C2.40039 14.5465 3.41182 16.9883 5.21217 18.7886C6.10361 19.6801 7.1619 20.3872 8.32663 20.8696C9.49135 21.3521 10.7397 21.6004 12.0004 21.6004C14.5465 21.6004 16.9883 20.589 18.7886 18.7886C20.589 16.9883 21.6004 14.5465 21.6004 12.0004C21.6004 10.7397 21.3521 9.49135 20.8696 8.32663C20.3872 7.1619 19.6801 6.10361 18.7886 5.21217C17.8972 4.32072 16.8389 3.61359 15.6742 3.13115C14.5094 2.6487 13.2611 2.40039 12.0004 2.40039Z" fill="#002CFB"/>
</g>
</svg>
