<svg width="20" height="20" viewBox="0 0 20 20" fill="none" xmlns="http://www.w3.org/2000/svg">
<path fill-rule="evenodd" clip-rule="evenodd" d="M16.1598 2.58093C15.5089 1.93006 14.4537 1.93005 13.8028 2.58093L12.9233 3.46044L17.11 7.64587L17.9888 6.76699C18.6397 6.11611 18.6397 5.06084 17.9888 4.40996L16.1598 2.58093ZM6.18251 10.2012L11.9805 4.40325L16.1672 8.58868L10.3695 14.3863C9.87195 14.8839 9.18777 15.1487 8.48491 15.1158L6.34582 15.0158C5.91609 14.9957 5.5723 14.6518 5.55232 14.222L5.45297 12.0851C5.42031 11.3824 5.68514 10.6986 6.18251 10.2012ZM2.08464 16.6663C1.85452 16.6663 1.66797 16.8529 1.66797 17.083V17.9163C1.66797 18.1464 1.85452 18.333 2.08464 18.333H14.5846C14.8148 18.333 15.0013 18.1464 15.0013 17.9163V17.083C15.0013 16.8529 14.8148 16.6663 14.5846 16.6663H2.08464Z" fill="#ADBFDF"/>
</svg>
