<svg width="22" height="22" viewBox="0 0 22 22" fill="none" xmlns="http://www.w3.org/2000/svg">
<path d="M11.9492 6.14236L13.6065 4.48513C14.6858 3.40576 16.4358 3.40576 17.5152 4.48513C18.5946 5.56449 18.5946 7.31449 17.5152 8.39386L14.2579 11.6511C13.1786 12.7305 11.4286 12.7305 10.3492 11.6511C10.1711 11.473 10.0224 11.2767 9.90305 11.0681C9.59193 11.2025 9.3005 11.3969 9.04627 11.6511L8.45997 12.2374C8.62774 12.4906 8.82318 12.7309 9.04629 12.954C10.8452 14.753 13.7619 14.753 15.5608 12.954L18.8181 9.69676C20.6171 7.89782 20.6171 4.98116 18.8181 3.18222C17.0192 1.38327 14.1025 1.38327 12.3036 3.18222L9.81399 5.67178C10.5416 5.70604 11.2646 5.8629 11.9492 6.14236Z" fill="#002CFB"/>
<path d="M3.18319 12.3026C1.38425 14.1015 1.38425 17.0182 3.18319 18.8171C4.98213 20.6161 7.8988 20.6161 9.69774 18.8171L12.3694 16.1455C11.6137 16.1532 10.8569 16.0288 10.1366 15.7725L8.39483 17.5142C7.31547 18.5936 5.56547 18.5936 4.4861 17.5142C3.40674 16.4349 3.40674 14.6849 4.4861 13.6055L7.74338 10.3482C8.82274 9.26885 10.5727 9.26885 11.6521 10.3482C11.8302 10.5263 11.9789 10.7227 12.0982 10.9313C12.4093 10.7968 12.7008 10.6024 12.955 10.3482L13.5413 9.76191C13.3735 9.5087 13.1781 9.26841 12.955 9.04531C11.1561 7.24637 8.23941 7.24637 6.44047 9.04531L3.18319 12.3026Z" fill="#002CFB"/>
</svg>
