<svg width="18" height="18" viewBox="0 0 18 18" fill="none" xmlns="http://www.w3.org/2000/svg">
<path fill-rule="evenodd" clip-rule="evenodd" d="M9 18C13.9706 18 18 13.9706 18 9C18 4.02944 13.9706 0 9 0C4.02944 0 0 4.02944 0 9C0 13.9706 4.02944 18 9 18ZM9 2.57143C9.71008 2.57143 10.2857 3.14706 10.2857 3.85714V10.2857C10.2857 10.9958 9.71008 11.5714 9 11.5714C8.28992 11.5714 7.71429 10.9958 7.71429 10.2857V3.85714C7.71429 3.14706 8.28992 2.57143 9 2.57143ZM9.00003 15.4286C9.78112 15.4286 10.4143 14.8529 10.4143 14.1429C10.4143 13.4328 9.78112 12.8571 9.00003 12.8571C8.21894 12.8571 7.58575 13.4328 7.58575 14.1429C7.58575 14.8529 8.21894 15.4286 9.00003 15.4286Z" fill="#FFC227"/>
</svg>
